# Blender v3.0.1 OBJ File: ''
# www.blender.org
o Cube.005
v -100.000000 0.002833 -34.999996
v -100.000000 0.002829 35.000004
v -100.000000 200.002838 35.000011
v -100.000000 200.002838 -34.999989
v 100.000000 200.002838 -34.999996
v 100.000000 200.002838 35.000004
v 100.000000 0.002829 34.999996
v 100.000000 0.002833 -35.000004
vt 0.637117 0.500000
vt 0.903944 0.500000
vt 0.903944 0.750000
vt 0.637117 0.750000
vt 0.361921 0.750000
vt 0.628747 0.750000
vt 0.628747 1.000000
vt 0.361921 1.000000
vt 0.366587 0.000000
vt 0.633413 0.000000
vt 0.633413 0.250000
vt 0.366587 0.250000
vt 0.096260 0.500000
vt 0.363087 0.500000
vt 0.363087 0.750000
vt 0.096260 0.750000
vt 0.366587 0.500000
vt 0.633413 0.500000
vt 0.633413 0.750000
vt 0.366587 0.750000
vn -1.0000 0.0000 0.0000
vn 0.0000 1.0000 0.0000
vn 0.0000 -0.0000 1.0000
vn 1.0000 0.0000 0.0000
vn -0.0000 0.0000 -1.0000
vn -0.0000 -1.0000 -0.0000
s 1
f 1/1/1 2/2/1 3/3/1 4/4/1
f 5/5/2 4/6/2 3/7/2 6/8/2
f 6/9/3 3/10/3 2/11/3 7/12/3
f 7/13/4 8/14/4 5/15/4 6/16/4
f 8/17/5 1/18/5 4/19/5 5/20/5
f 7/12/6 2/11/6 1/18/6 8/17/6
