# Blender v3.0.1 OBJ File: ''
# www.blender.org
mtllib computer.mtl
o Computer
v 4.794980 28.867020 -3.655646
v 4.183375 34.048191 -2.596696
v 6.904140 28.867020 0.000002
v 5.682679 34.048191 0.000002
v 4.794980 28.867020 3.655649
v 4.183375 34.048191 2.596700
v 0.573161 28.867020 3.655649
v 1.184765 34.048191 2.596700
v -1.536001 28.867020 0.000002
v -0.314540 34.048191 0.000002
v 0.573161 28.867020 -3.655646
v 1.184765 34.048191 -2.596696
v 4.183375 34.048191 2.596700
v 5.682679 34.048191 0.000002
v 2.684070 35.365746 0.000002
v 4.183375 34.048191 -2.596696
v 1.184765 34.048191 -2.596696
v 4.183375 34.048191 2.596700
v 2.684070 35.365746 0.000002
v 1.184765 34.048191 2.596700
v -0.314540 34.048191 0.000002
v 9.500838 25.852688 -10.538816
v 9.500838 25.852688 10.538820
v 12.710889 24.421524 8.964376
v 12.710889 24.421524 -8.964375
v 9.500838 7.347277 -10.538817
v 9.500838 25.852688 -10.538816
v 12.710889 24.421524 -8.964375
v 12.710889 8.778432 -8.964375
v 9.500838 7.347277 10.538819
v 9.500838 7.347277 -10.538817
v 12.710889 8.778432 -8.964375
v 12.710889 8.778432 8.964376
v 9.500838 25.852688 10.538820
v 9.500838 7.347277 10.538819
v 12.710889 8.778432 8.964376
v 12.710889 24.421524 8.964376
v 9.500838 27.642067 -12.508183
v 9.500838 27.642067 12.508186
v 9.500838 25.852688 10.538820
v 9.500838 25.852688 -10.538816
v 9.500838 5.557899 -12.508183
v 9.500838 27.642067 -12.508183
v 9.500838 25.852688 -10.538816
v 9.500838 7.347277 -10.538817
v 9.500838 5.557897 12.508185
v 9.500838 5.557899 -12.508183
v 9.500838 7.347277 -10.538817
v 9.500838 7.347277 10.538819
v 9.500838 27.642067 12.508186
v 9.500838 5.557897 12.508185
v 9.500838 7.347277 10.538819
v 9.500838 25.852688 10.538820
v -17.289185 2.873826 12.508184
v -5.972755 5.557897 12.508185
v -8.946899 4.801254 9.824116
v -14.315040 3.275738 9.824116
v -17.289185 2.873828 -12.508184
v -17.289185 2.873826 12.508184
v -14.315040 3.275738 9.824116
v -14.315040 3.275738 -9.824114
v -5.972755 5.557899 -12.508183
v -17.289185 2.873828 -12.508184
v -14.315040 3.275738 -9.824114
v -8.946899 4.801254 -9.824114
v -5.972755 5.557897 12.508185
v -5.972755 5.557899 -12.508183
v -8.946899 4.801254 -9.824114
v -8.946899 4.801254 9.824116
v -5.972755 5.557897 12.508185
v -5.972755 27.642067 12.508186
v -5.972755 24.063309 9.824116
v -5.972755 9.136657 9.824116
v -5.972755 5.557899 -12.508183
v -5.972755 5.557897 12.508185
v -5.972755 9.136657 9.824116
v -5.972755 9.136657 -9.824114
v -5.972755 27.642067 -12.508183
v -5.972755 5.557899 -12.508183
v -5.972755 9.136657 -9.824114
v -5.972755 24.063309 -9.824114
v -5.972755 27.642067 12.508186
v -5.972755 27.642067 -12.508183
v -5.972755 24.063309 -9.824114
v -5.972755 24.063309 9.824116
v 9.500838 27.642067 -12.508183
v -5.972755 27.642067 -12.508183
v -4.183375 28.536758 -10.718802
v 7.711458 28.536758 -10.718802
v 9.500838 27.642067 12.508186
v 9.500838 27.642067 -12.508183
v 7.711458 28.536758 -10.718802
v 7.711458 28.536758 10.718806
v -5.972755 27.642067 12.508186
v 9.500838 27.642067 12.508186
v 7.711458 28.536758 10.718806
v -4.183375 28.536758 10.718806
v -5.972755 27.642067 -12.508183
v -5.972755 27.642067 12.508186
v -4.183375 28.536758 10.718806
v -4.183375 28.536758 -10.718802
v -8.946899 4.801254 9.824116
v -8.946899 4.801254 -9.824114
v -14.315040 3.275738 -9.824114
v -14.315040 3.275738 9.824116
v -5.972755 -0.704933 12.508184
v -5.972755 5.557897 12.508185
v -17.289185 2.873826 12.508184
v -17.289185 -0.704933 12.508184
v -5.972755 5.557899 -12.508183
v -5.972755 -0.704932 -12.508184
v -17.289185 -0.704932 -12.508184
v -17.289185 2.873828 -12.508184
v -5.972755 24.063309 9.824116
v -5.972755 24.063309 -9.824114
v -5.972755 9.136657 -9.824114
v -5.972755 9.136657 9.824116
v -17.289185 2.873828 -12.508184
v -17.289185 -0.704932 -12.508184
v -17.289185 -0.704933 12.508184
v -17.289185 2.873826 12.508184
v 12.710889 24.421524 8.964376
v 12.710889 8.778432 8.964376
v 12.710889 8.778432 -8.964375
v 12.710889 24.421524 -8.964375
v 9.500838 5.557899 -12.508183
v 9.500838 5.557897 12.508185
v 9.500838 -0.704933 12.508184
v 9.500838 -0.704932 -12.508184
v -5.972755 -0.704932 -12.508184
v -5.972755 5.557899 -12.508183
v 9.500838 5.557899 -12.508183
v 9.500838 -0.704932 -12.508184
v -5.972755 5.557899 -12.508183
v -5.972755 27.642067 -12.508183
v 9.500838 27.642067 -12.508183
v 9.500838 5.557899 -12.508183
v -4.183375 28.536758 -10.718802
v -4.183375 28.536758 10.718806
v 7.711458 28.536758 10.718806
v 7.711458 28.536758 -10.718802
v -5.972755 27.642067 12.508186
v -5.972755 5.557897 12.508185
v 9.500838 5.557897 12.508185
v 9.500838 27.642067 12.508186
v -5.972755 5.557897 12.508185
v -5.972755 -0.704933 12.508184
v 9.500838 -0.704933 12.508184
v 9.500838 5.557897 12.508185
v 0.573161 28.867020 3.655649
v 4.794980 28.867020 3.655649
v 4.183375 34.048191 2.596700
v 1.184765 34.048191 2.596700
v 4.794980 28.867020 -3.655646
v 0.573161 28.867020 -3.655646
v 1.184765 34.048191 -2.596696
v 4.183375 34.048191 -2.596696
v 1.184765 34.048191 -2.596696
v -0.314540 34.048191 0.000002
v 2.684070 35.365746 0.000002
vt 0.031250 0.520485
vt 0.031250 0.957985
vt 0.218750 0.957985
vt 0.218750 0.520485
vt 0.031250 0.520485
vt 0.031250 0.957985
vt 0.921875 -0.218750
vt 0.974609 -0.207031
vt 0.921875 -0.181641
vt 0.974609 -0.181641
vt 0.921875 -0.144531
vt 0.974609 -0.156250
vt 0.867188 -0.218750
vt 0.919922 -0.207031
vt 0.867188 -0.181641
vt 0.919922 -0.181641
vt 0.867188 -0.144531
vt 0.919922 -0.156250
vt 0.867188 -0.128906
vt 0.894531 -0.144531
vt 0.894531 -0.113281
vt 0.919922 -0.128906
vt 0.919922 -0.097656
vt 0.867188 -0.128906
vt 0.894531 -0.113281
vt 0.867188 -0.097656
vt 0.894531 -0.083984
vt 0.031250 -0.031250
vt 0.031250 -0.468750
vt 0.218750 -0.468750
vt 0.218750 -0.031250
vt 0.031250 -0.031250
vt 0.031250 -0.468750
vt 0.218750 -0.468750
vt 0.218750 -0.031250
vt 0.031250 -0.031250
vt 0.031250 -0.468750
vt 0.218750 -0.468750
vt 0.218750 -0.031250
vt 0.031250 -0.031250
vt 0.031250 -0.468750
vt 0.218750 -0.468750
vt 0.218750 -0.031250
vt 0.031250 -0.031250
vt 0.031250 -0.468750
vt 0.218750 -0.468750
vt 0.218750 -0.031250
vt 0.031250 -0.031250
vt 0.031250 -0.468750
vt 0.218750 -0.468750
vt 0.218750 -0.031250
vt 0.031250 -0.031250
vt 0.031250 -0.468750
vt 0.218750 -0.468750
vt 0.218750 -0.031250
vt 0.031250 -0.031250
vt 0.031250 -0.468750
vt 0.218750 -0.468750
vt 0.218750 -0.031250
vt 0.031250 -0.031250
vt 0.031250 -0.468750
vt 0.218750 -0.468750
vt 0.218750 -0.031250
vt 0.031250 -0.031250
vt 0.031250 -0.468750
vt 0.218750 -0.468750
vt 0.218750 -0.031250
vt 0.031250 -0.031250
vt 0.031250 -0.468750
vt 0.218750 -0.468750
vt 0.218750 -0.031250
vt 0.031250 -0.031250
vt 0.031250 -0.468750
vt 0.218750 -0.468750
vt 0.218750 -0.031250
vt 0.031250 -0.031250
vt 0.031250 -0.468750
vt 0.218750 -0.468750
vt 0.218750 -0.031250
vt 0.031250 -0.031250
vt 0.031250 -0.468750
vt 0.218750 -0.468750
vt 0.218750 -0.031250
vt 0.031250 -0.031250
vt 0.031250 -0.468750
vt 0.218750 -0.468750
vt 0.218750 -0.031250
vt 0.031250 -0.031250
vt 0.031250 -0.468750
vt 0.218750 -0.468750
vt 0.218750 -0.031250
vt 0.031250 -0.031250
vt 0.031250 -0.468750
vt 0.218750 -0.468750
vt 0.218750 -0.031250
vt 0.031250 -0.031250
vt 0.031250 -0.468750
vt 0.218750 -0.468750
vt 0.218750 -0.031250
vt 0.031250 -0.031250
vt 0.031250 -0.468750
vt 0.218750 -0.468750
vt 0.218750 -0.031250
vt 0.031250 -0.031250
vt 0.031250 -0.468750
vt 0.218750 -0.468750
vt 0.218750 -0.031250
vt 0.500000 -0.531250
vt 0.031250 -0.531250
vt 0.031250 -0.968750
vt 0.500000 -0.968750
vt 0.218750 -0.468750
vt 0.031250 -0.468750
vt 0.031250 -0.031250
vt 0.218750 -0.031250
vt 0.031250 -0.468750
vt 0.218750 -0.468750
vt 0.218750 -0.031250
vt 0.031250 -0.031250
vt 0.968750 -0.531250
vt 0.562500 -0.531250
vt 0.562500 -0.968750
vt 0.968750 -0.968750
vt 0.218750 -0.031250
vt 0.031250 -0.031250
vt 0.031250 -0.468750
vt 0.218750 -0.468750
vt 0.218750 -0.031250
vt 0.031250 -0.031250
vt 0.031250 -0.468750
vt 0.218750 -0.468750
vt 0.218750 -0.468750
vt 0.218750 -0.031250
vt 0.031250 -0.031250
vt 0.031250 -0.468750
vt 0.218750 -0.031250
vt 0.031250 -0.031250
vt 0.031250 -0.468750
vt 0.218750 -0.468750
vt 0.718750 -0.468750
vt 0.718750 -0.031250
vt 0.281250 -0.031250
vt 0.281250 -0.468750
vt 0.031250 -0.031250
vt 0.031250 -0.468750
vt 0.218750 -0.468750
vt 0.218750 -0.031250
vt 0.281250 -0.031250
vt 0.281250 -0.468750
vt 0.718750 -0.468750
vt 0.718750 -0.031250
vt 0.218750 -0.031250
vt 0.031250 -0.031250
vt 0.031250 -0.468750
vt 0.218750 -0.468750
vt 0.792969 -0.078125
vt 0.833984 -0.078125
vt 0.828125 -0.027344
vt 0.798828 -0.027344
vt 0.867188 -0.080078
vt 0.824219 -0.080078
vt 0.830078 -0.132812
vt 0.859375 -0.132812
vt 0.919922 -0.097656
vt 0.894531 -0.083984
vt 0.894531 -0.113281
vn 0.0000 -0.7071 0.7071
vn 0.0000 -0.8944 0.4472
vn 0.0000 -0.8944 -0.4472
vn 0.0000 -0.7071 -0.7071
vn -0.7071 -0.7071 -0.0000
vn 0.8989 0.2121 -0.3834
vn 0.9200 0.2170 -0.3264
vn 0.9701 0.2288 -0.0804
vn 0.9702 0.2288 0.0803
vn 0.9200 0.2170 0.3263
vn 0.8989 0.2121 0.3835
vn -0.8989 0.2121 0.3834
vn -0.9200 0.2170 0.3264
vn -0.9701 0.2288 0.0804
vn -0.9702 0.2288 -0.0803
vn -0.9200 0.2170 -0.3263
vn -0.8989 0.2121 -0.3835
vn 0.3730 0.9240 0.0839
vn 0.3534 0.9340 -0.0527
vn 0.2775 0.9473 -0.1602
vn 0.2223 0.9340 -0.2797
vn 0.1139 0.9240 -0.3650
vn -0.0947 0.9088 0.4065
vn -0.2011 0.9155 0.3484
vn -0.3046 0.9088 0.2852
vn 0.4072 0.9133 0.0000
vn 0.4404 0.0000 -0.8978
vn 0.4072 -0.9133 0.0000
vn 0.4404 0.0000 0.8978
vn 1.0000 0.0000 0.0000
vn -0.2441 0.9676 -0.0639
vn -0.1339 0.9910 0.0000
vn -0.2441 0.9676 0.0639
vn -0.2466 0.9691 0.0000
vn -1.0000 0.0000 0.0000
vn 0.0000 0.8944 -0.4472
vn 0.4472 0.8944 0.0000
vn 0.0000 0.8944 0.4472
vn -0.4472 0.8944 0.0000
vn -0.2734 0.9619 0.0000
vn -0.0000 -0.0000 1.0000
vn 0.0000 0.0000 -1.0000
vn 0.0000 1.0000 0.0000
vn 0.0000 0.2002 0.9797
vn 0.0000 0.2002 -0.9797
vn -0.3918 0.8918 -0.2262
usemtl Material.001
s 1
f 148/1/1 147/2/2 130/3/3 133/4/4
f 147/2/2 120/5/5 119/6/5 130/3/3
f 1/7/6 2/8/7 3/9/8
f 2/8/7 4/10/9 3/9/8
f 3/9/8 4/10/9 5/11/10
f 4/10/9 6/12/11 5/11/10
f 7/13/12 8/14/13 9/15/14
f 8/14/13 10/16/15 9/15/14
f 9/15/14 10/16/15 11/17/16
f 10/16/15 12/18/17 11/17/16
f 13/19/18 14/20/19 15/21/20
f 14/20/19 16/22/21 15/21/20
f 15/21/20 16/22/21 17/23/22
f 18/24/23 19/25/24 20/26/24
f 19/25/24 21/27/25 20/26/24
f 22/28/26 23/29/26 24/30/26 25/31/26
f 26/32/27 27/33/27 28/34/27 29/35/27
f 30/36/28 31/37/28 32/38/28 33/39/28
f 34/40/29 35/41/29 36/42/29 37/43/29
f 38/44/30 39/45/30 40/46/30 41/47/30
f 42/48/30 43/49/30 44/50/30 45/51/30
f 46/52/30 47/53/30 48/54/30 49/55/30
f 50/56/30 51/57/30 52/58/30 53/59/30
f 54/60/31 55/61/31 56/62/31 57/63/31
f 58/64/32 59/65/32 60/66/32 61/67/32
f 62/68/33 63/69/33 64/70/33 65/71/33
f 66/72/34 67/73/34 68/74/34 69/75/34
f 70/76/35 71/77/35 72/78/35 73/79/35
f 74/80/35 75/81/35 76/82/35 77/83/35
f 78/84/35 79/85/35 80/86/35 81/87/35
f 82/88/35 83/89/35 84/90/35 85/91/35
f 86/92/36 87/93/36 88/94/36 89/95/36
f 90/96/37 91/97/37 92/98/37 93/99/37
f 94/100/38 95/101/38 96/102/38 97/103/38
f 98/104/39 99/105/39 100/106/39 101/107/39
f 102/108/40 103/109/40 104/110/40 105/111/40
f 106/112/41 107/113/41 108/114/41 109/115/41
f 110/116/42 111/117/42 112/118/42 113/119/42
f 114/120/35 115/121/35 116/122/35 117/123/35
f 118/124/35 119/125/5 120/126/5 121/127/35
f 122/128/30 123/129/30 124/130/30 125/131/30
f 126/132/30 127/133/30 128/134/30 129/135/30
f 130/136/3 131/137/42 132/138/42 133/139/4
f 134/140/42 135/141/42 136/142/42 137/143/42
f 138/144/43 139/145/43 140/146/43 141/147/43
f 142/148/41 143/149/41 144/150/41 145/151/41
f 146/152/41 147/153/2 148/154/1 149/155/41
f 150/156/44 151/157/44 152/158/44 153/159/44
f 154/160/45 155/161/45 156/162/45 157/163/45
f 158/164/46 159/165/46 160/166/46
