# Blender v3.0.1 OBJ File: ''
# www.blender.org
o Cube.004
v -55.000023 220.225372 -4.399988
v -55.000023 220.225372 4.400012
v 54.999977 220.225372 4.400007
v 54.999977 220.225372 -4.399993
v 55.000008 0.225373 -4.400002
v 55.000008 0.225372 4.399997
v -54.999992 0.225363 4.400002
v -54.999992 0.225364 -4.399997
vt 0.292778 0.344444
vt 0.297222 0.346667
vt 0.297222 0.596667
vt 0.292778 0.594444
vt 0.292813 0.663792
vt 0.296181 0.663792
vt 0.296181 0.913792
vt 0.292813 0.913792
vt 0.072533 0.019070
vt 0.072533 0.959311
vt 0.300800 0.959311
vt 0.300800 0.019070
vt 0.292559 0.468252
vt 0.297394 0.468252
vt 0.297394 0.718252
vt 0.292559 0.718252
vt 0.296895 0.026080
vt 0.296895 0.957804
vt 0.072725 0.957804
vt 0.072725 0.026080
vt 0.292778 0.261111
vt 0.297613 0.261111
vt 0.297613 0.511111
vt 0.292778 0.511111
vn 0.0000 1.0000 0.0000
vn 1.0000 0.0000 0.0000
vn 0.0000 -0.0000 1.0000
vn 0.0000 -1.0000 -0.0000
vn -0.0000 0.0000 -1.0000
vn -1.0000 -0.0000 0.0000
s 1
f 1/1/1 2/2/1 3/3/1 4/4/1
f 5/5/2 4/6/2 3/7/2 6/8/2
f 6/9/3 3/10/3 2/11/3 7/12/3
f 7/13/4 8/14/4 5/15/4 6/16/4
f 8/17/5 1/18/5 4/19/5 5/20/5
f 7/21/6 2/22/6 1/23/6 8/24/6
