# Blender v3.0.1 OBJ File: ''
# www.blender.org
mtllib plant_pot.mtl
o skemptyplantpotmesh
v 0.000001 2.233122 -5.055358
v -3.574687 2.233122 -3.574687
v 0.000013 2.233122 5.055358
v -5.055358 2.233122 0.000006
v -3.574660 2.233122 3.574687
v 5.055358 2.233122 -0.000005
v 3.574687 2.233122 -3.574687
v 3.574687 2.233122 3.574687
v 10.606601 25.835205 -10.606600
v 0.000001 25.835205 -14.999990
v 8.898710 25.833979 -8.898709
v 0.000001 14.476767 -11.319273
v -8.003932 14.476766 -8.003931
v 0.000001 14.469869 -13.873209
v -9.809842 14.469868 -9.809841
v 0.000001 25.833979 -12.584683
v 5.121725 0.314239 5.121696
v 5.121696 0.314239 -5.121696
v 7.243195 0.314239 0.000006
v -5.121696 0.314239 -5.121696
v 0.000001 0.314239 -7.243167
v -10.606601 25.835205 -10.606600
v -8.898710 25.833979 -8.898709
v 8.003932 14.476766 -8.003931
v 9.809842 14.469868 -9.809841
v 13.873210 14.469868 0.000006
v 11.319274 14.476766 0.000006
v -14.999991 25.835205 0.000007
v -12.584684 25.833979 0.000007
v 12.584684 25.833979 0.000007
v 14.999991 25.835205 0.000007
v -11.319274 14.476766 0.000006
v -13.873210 14.469868 0.000006
v 9.809842 14.469868 9.809843
v -7.243167 0.314239 0.000006
v 8.003960 14.476766 8.003933
v 8.898710 25.833979 8.898711
v -10.606601 25.835205 10.606602
v -8.898710 25.833979 8.898711
v 10.606601 25.835205 10.606602
v -8.003932 14.476766 8.003961
v -9.809842 14.469868 9.809843
v 0.000001 14.469867 13.873211
v 0.000001 14.476765 11.319303
v -5.121696 0.314239 5.121696
v 0.000001 25.833979 12.584685
v 0.000001 25.835205 14.999992
v 0.000013 0.314239 7.243195
vt 0.351560 -0.128910
vt 0.382810 -0.117190
vt 0.351560 -0.039060
vt 0.398440 -0.085940
vt 0.382810 -0.050780
vt 0.308590 -0.085940
vt 0.320310 -0.117190
vt 0.320310 -0.050780
vt 0.375000 -0.605470
vt 0.496090 -0.609380
vt 0.375000 -0.640630
vt 0.625000 -0.308590
vt 0.750000 -0.308590
vt 0.625000 -0.386720
vt 0.750000 -0.386720
vt 0.496090 -0.640630
vt 0.613280 -0.046880
vt 0.613280 -0.113280
vt 0.601560 -0.082030
vt 0.679690 -0.113280
vt 0.648440 -0.128910
vt 0.621090 -0.609380
vt 0.621090 -0.640630
vt 0.500000 -0.308590
vt 0.500000 -0.386720
vt 0.375000 -0.386720
vt 0.375000 -0.308590
vt 0.746090 -0.609380
vt 0.746090 -0.640630
vt 0.246090 -0.640630
vt 0.246090 -0.605470
vt 0.875000 -0.308590
vt 0.875000 -0.386720
vt 0.250000 -0.386720
vt 0.695310 -0.082030
vt 0.250000 -0.308590
vt 0.121090 -0.640630
vt 0.871090 -0.609380
vt 0.871090 -0.640630
vt 0.121090 -0.605470
vt 0.996090 -0.308590
vt 0.996090 -0.386720
vt 0.125000 -0.386720
vt 0.125000 -0.308590
vt 0.679690 -0.046880
vt 0.000000 -0.640630
vt 0.000000 -0.609380
vt 0.996090 -0.609380
vt 0.996090 -0.640630
vt 0.648440 -0.035160
vt 0.000000 -0.386720
vt 0.000000 -0.386720
vt 0.000000 -0.308590
vt 0.000000 -0.546880
vt 0.125000 -0.546880
vt 0.125000 -0.386720
vt 0.125000 -0.308590
vt 0.000000 -0.183590
vt 0.000000 -0.957030
vt 0.125000 -0.957030
vt 0.996090 -0.957030
vt 0.875000 -0.957030
vt 0.250000 -0.308590
vt 0.125000 -0.183590
vt 0.250000 -0.183590
vt 0.996090 -0.546880
vt 0.996090 -0.386720
vt 0.875000 -0.386720
vt 0.875000 -0.546880
vt 0.250000 -0.546880
vt 0.250000 -0.386720
vt 0.996090 -0.308590
vt 0.996090 -0.183590
vt 0.875000 -0.183590
vt 0.250000 -0.957030
vt 0.875000 -0.308590
vt 0.750000 -0.957030
vt 0.375000 -0.308590
vt 0.375000 -0.183590
vt 0.750000 -0.386720
vt 0.375000 -0.546880
vt 0.375000 -0.386720
vt 0.750000 -0.546880
vt 0.375000 -0.957030
vt 0.750000 -0.183590
vt 0.750000 -0.308590
vt 0.500000 -0.308590
vt 0.500000 -0.183590
vt 0.625000 -0.957030
vt 0.500000 -0.546880
vt 0.500000 -0.386720
vt 0.625000 -0.386720
vt 0.625000 -0.546880
vt 0.500000 -0.957030
vt 0.625000 -0.183590
vt 0.625000 -0.308590
vn 0.0000 1.0000 0.0000
vn -0.0002 1.0000 0.0005
vn 0.0011 -1.0000 0.0027
vn 0.0000 -1.0000 -0.0000
vn 0.0002 1.0000 0.0005
vn -0.0027 -1.0000 0.0011
vn 0.0005 1.0000 0.0002
vn -0.0005 1.0000 0.0002
vn 0.0027 -1.0000 0.0011
vn -0.0011 -1.0000 0.0027
vn -0.0027 -1.0000 -0.0011
vn -0.0005 1.0000 -0.0002
vn 0.0005 1.0000 -0.0002
vn 0.0027 -1.0000 -0.0011
vn -0.0011 -1.0000 -0.0027
vn -0.0002 1.0000 -0.0005
vn 0.0002 1.0000 -0.0005
vn 0.0011 -1.0000 -0.0027
vn -0.3698 -0.2570 0.8929
vn -0.3811 -0.0912 0.9200
vn -0.3671 0.2827 -0.8862
vn 0.3671 0.2827 -0.8862
vn 0.3811 -0.0912 0.9200
vn -0.8929 -0.2570 0.3698
vn 0.3698 -0.2570 0.8929
vn -0.9200 -0.0912 0.3811
vn -0.8862 0.2827 -0.3671
vn 0.8862 0.2827 -0.3671
vn 0.9200 -0.0912 0.3811
vn -0.8929 -0.2570 -0.3698
vn 0.8929 -0.2570 0.3698
vn -0.8862 0.2827 0.3671
vn -0.9200 -0.0912 -0.3811
vn 0.9200 -0.0912 -0.3811
vn 0.8862 0.2827 0.3671
vn 0.8929 -0.2570 -0.3698
vn -0.3698 -0.2570 -0.8929
vn -0.3671 0.2827 0.8862
vn -0.3811 -0.0912 -0.9200
vn 0.3811 -0.0912 -0.9200
vn 0.3671 0.2827 0.8862
vn 0.3698 -0.2570 -0.8929
usemtl Mat
s off
f 1/1/1 2/2/1 3/3/1
f 4/4/1 5/5/1 3/3/1
f 6/6/1 7/7/1 3/3/1
f 8/8/1 6/6/1 3/3/1
f 2/2/1 4/4/1 3/3/1
f 7/7/1 1/1/1 3/3/1
f 9/9/2 10/10/2 11/11/2
f 12/12/3 13/13/3 14/14/3
f 13/13/3 15/15/3 14/14/3
f 10/10/2 16/16/2 11/11/2
f 17/17/4 18/18/4 19/19/4
f 17/17/4 20/20/4 21/21/4
f 22/22/5 23/23/5 16/16/5
f 24/24/6 25/25/6 26/26/6
f 27/27/6 24/24/6 26/26/6
f 10/10/5 22/22/5 16/16/5
f 28/28/7 29/29/7 23/23/7
f 9/9/8 11/11/8 30/30/8
f 31/31/8 9/9/8 30/30/8
f 13/13/9 32/32/9 15/15/9
f 32/32/9 33/33/9 15/15/9
f 24/24/10 12/12/10 25/25/10
f 27/27/11 26/26/11 34/34/11
f 17/17/4 35/35/4 20/20/4
f 12/12/10 14/14/10 25/25/10
f 36/36/11 27/27/11 34/34/11
f 31/31/12 30/30/12 37/37/12
f 28/28/13 38/38/13 29/29/13
f 38/38/13 39/39/13 29/29/13
f 40/40/12 31/31/12 37/37/12
f 22/22/7 28/28/7 23/23/7
f 32/32/14 41/41/14 33/33/14
f 41/41/14 42/42/14 33/33/14
f 36/36/15 34/34/15 43/43/15
f 44/44/15 36/36/15 43/43/15
f 17/17/4 45/45/4 35/35/4
f 40/40/16 37/37/16 46/46/16
f 47/47/16 40/40/16 46/46/16
f 38/38/17 47/48/17 39/39/17
f 47/48/17 46/49/17 39/39/17
f 17/17/4 48/50/4 45/45/4
f 44/44/18 43/43/18 42/51/18
f 41/52/18 44/44/18 42/53/18
f 17/17/4 21/21/4 18/18/4
f 45/54/19 48/55/19 41/52/19
f 48/55/19 44/56/19 41/52/19
f 42/53/20 43/57/20 38/58/20
f 46/46/21 37/37/21 3/59/21
f 37/37/21 8/60/21 3/59/21
f 46/49/22 3/61/22 5/62/22
f 39/39/22 46/49/22 5/62/22
f 43/57/23 34/63/23 47/64/23
f 34/63/23 40/65/23 47/64/23
f 45/66/24 41/67/24 32/68/24
f 35/69/24 45/66/24 32/68/24
f 48/55/25 17/70/25 44/56/25
f 17/70/25 36/71/25 44/56/25
f 42/72/26 38/73/26 28/74/26
f 37/37/27 30/30/27 8/60/27
f 30/30/27 6/75/27 8/60/27
f 33/76/26 42/72/26 28/74/26
f 39/39/28 5/62/28 4/77/28
f 34/63/29 26/78/29 40/65/29
f 26/78/29 31/79/29 40/65/29
f 29/29/28 39/39/28 4/77/28
f 35/69/30 32/68/30 13/80/30
f 17/70/31 19/81/31 36/71/31
f 19/81/31 27/82/31 36/71/31
f 20/83/30 35/69/30 13/80/30
f 30/30/32 11/11/32 6/75/32
f 11/11/32 7/84/32 6/75/32
f 33/76/33 28/74/33 22/85/33
f 15/86/33 33/76/33 22/85/33
f 26/78/34 25/87/34 31/79/34
f 25/87/34 9/88/34 31/79/34
f 29/29/35 4/77/35 2/89/35
f 23/23/35 29/29/35 2/89/35
f 19/81/36 18/90/36 27/82/36
f 18/90/36 24/91/36 27/82/36
f 20/83/37 13/80/37 12/92/37
f 21/93/37 20/83/37 12/92/37
f 11/11/38 16/16/38 7/84/38
f 16/16/38 1/94/38 7/84/38
f 15/86/39 22/85/39 10/95/39
f 14/96/39 15/86/39 10/95/39
f 25/87/40 14/96/40 9/88/40
f 14/96/40 10/95/40 9/88/40
f 23/23/41 2/89/41 1/94/41
f 16/16/41 23/23/41 1/94/41
f 18/90/42 21/93/42 24/91/42
f 21/93/42 12/92/42 24/91/42
f 43/57/20 47/64/20 38/58/20
