# Blender v3.0.1 OBJ File: ''
# www.blender.org
o Cube.005
v -92.667694 7.335140 -4.999999
v -100.000000 0.002831 5.000000
v -100.000000 200.002838 5.000009
v -92.667694 192.670532 -4.999990
v 92.667694 192.670532 -4.999992
v 100.000000 200.002838 5.000008
v 100.000000 0.002831 4.999999
v 92.667694 7.335140 -5.000000
v -100.000000 0.002831 -4.999999
v -100.000000 200.002838 -4.999990
v 100.000000 200.002838 -4.999992
v 100.000000 0.002831 -5.000000
v -92.667694 7.335140 -0.721454
v -92.667694 192.670532 -0.721446
v 92.667694 192.670532 -0.721447
v 92.667694 7.335140 -0.721455
vt 0.977749 0.500000
vt 0.981803 0.500000
vt 0.981803 0.750000
vt 0.977749 0.750000
vt 0.016422 0.750000
vt 0.027773 0.750000
vt 0.027773 1.000000
vt 0.016422 1.000000
vt 0.366587 0.006300
vt 0.633413 0.006300
vt 0.633413 0.019827
vt 0.366587 0.019827
vt 0.021155 0.500000
vt 0.024611 0.500000
vt 0.024611 0.750000
vt 0.021155 0.750000
vt 0.956855 0.987294
vt 0.043146 0.987294
vt 0.043146 0.987294
vt 0.956855 0.987294
vt 0.011256 0.250000
vt 0.018244 0.250000
vt 0.018244 0.500000
vt 0.011256 0.500000
vt 0.963693 0.963483
vt 0.963693 0.040390
vt 0.993003 0.003870
vt 0.993003 1.000003
vt 0.043146 0.980083
vt 0.956855 0.980083
vt 0.006997 1.000003
vt 0.956855 0.022130
vt 0.043146 0.022130
vt 0.006997 0.003870
vt 0.025857 0.040390
vt 0.025857 0.963483
vt 0.042899 0.040390
vt 0.957101 0.040390
vt 0.957101 0.963483
vt 0.042899 0.963483
vt 0.043146 0.016579
vt 0.956855 0.016579
vt 0.956855 0.016579
vt 0.043146 0.016579
vt 0.983891 0.040390
vt 0.983891 0.963483
vt 0.983891 0.963483
vt 0.983891 0.040390
vt 0.019972 0.963483
vt 0.019972 0.040390
vt 0.019972 0.040390
vt 0.019972 0.963483
vn -1.0000 0.0000 0.0000
vn 0.0000 1.0000 0.0000
vn 0.0000 -0.0000 1.0000
vn 1.0000 0.0000 0.0000
vn 0.7071 -0.7071 0.0000
vn -0.7071 -0.7071 0.0000
vn -0.0000 -1.0000 -0.0000
vn 0.0000 0.0000 -1.0000
vn -0.7071 0.7071 0.0000
vn 0.7071 0.7071 0.0000
s 1
f 9/1/1 2/2/1 3/3/1 10/4/1
f 11/5/2 10/6/2 3/7/2 6/8/2
f 6/9/3 3/10/3 2/11/3 7/12/3
f 7/13/4 12/14/4 11/15/4 6/16/4
f 4/17/5 5/18/6 15/19/6 14/20/5
f 7/21/7 2/22/7 9/23/7 12/24/7
f 4/25/8 1/26/8 9/27/8 10/28/8
f 5/29/8 4/30/8 10/28/8 11/31/8
f 1/32/8 8/33/8 12/34/8 9/27/8
f 8/35/8 5/36/8 11/31/8 12/34/8
f 16/37/8 13/38/8 14/39/8 15/40/8
f 8/41/9 1/42/10 13/43/10 16/44/9
f 1/45/10 4/46/5 14/47/5 13/48/10
f 5/49/6 8/50/9 16/51/9 15/52/6
