# Blender v3.0.1 OBJ File: ''
# www.blender.org
mtllib porygon.mtl
o porygon.002
v 0.000002 15.782394 23.576860
v -11.058044 3.317905 21.248850
v 0.000002 3.317905 21.248850
v -14.754966 15.782394 23.576860
v 11.058048 3.317905 21.248848
v -12.419823 21.729740 24.535475
v 14.754970 15.782394 23.576859
v 0.000002 21.729740 24.535475
v 12.419827 21.729740 24.535473
v -0.000001 3.317900 -5.875021
v -11.058047 3.317900 -5.875020
v -7.774576 33.535660 -0.783064
v 7.774576 33.535660 -0.783067
v -14.755243 15.782388 -15.729844
v -12.419826 21.729738 -6.677757
v 11.058045 3.317900 -5.875022
v 0.000000 33.535660 -0.783065
v -0.000001 29.981150 -10.941085
v -9.185678 29.981150 -10.941085
v 14.755241 15.782388 -15.729847
v 9.185677 29.981150 -10.941086
v 12.419824 21.729738 -6.677759
v 0.000001 45.618446 9.940206
v -5.986976 54.880001 7.918221
v -14.259127 45.618446 9.940207
v 0.000001 54.880001 7.918221
v -13.832915 36.482712 7.639296
v 5.986977 54.880001 7.918220
v 0.000001 36.482712 7.639295
v 14.259129 45.618446 9.940205
v 13.832917 36.482712 7.639292
v -12.358771 29.981148 -10.940810
v 12.358769 29.981148 -10.940813
v -0.000001 29.981148 -10.940811
v -9.503778 29.655708 -19.897499
v -0.000002 29.655708 -19.897501
v 9.503774 29.655708 -19.897501
v -4.319594 29.775204 -34.923706
v -5.014560 29.144085 -33.981010
v -6.976828 40.680965 -24.875803
v -0.000002 40.681030 -24.875809
v -0.000003 29.775204 -34.923706
v -0.000003 29.144085 -33.981010
v -9.195763 37.874538 -22.543747
v 4.319589 29.775204 -34.923706
v 6.976823 40.680965 -24.875803
v 5.014554 29.144085 -33.981010
v 9.195759 37.874538 -22.543749
v -0.000001 15.782388 -15.729846
v -10.503758 41.642185 -14.847780
v -7.918293 46.315907 -16.905306
v -12.172179 39.777775 -6.914471
v -0.000001 46.315907 -16.905306
v -5.967144 50.645664 -10.381789
v -0.000001 50.645592 -10.381789
v 0.000000 52.022606 -4.538658
v -8.193858 52.022606 -4.538657
v -11.993887 46.271317 -2.072993
v 10.503757 41.642185 -14.847782
v 7.918291 46.315907 -16.905306
v 12.172177 39.777775 -6.914473
v 5.967142 50.645664 -10.381790
v 11.993887 46.271317 -2.072995
v 8.193858 52.022606 -4.538659
v 0.000002 3.889284 21.341322
v -8.421676 3.901620 27.471693
v -8.421677 3.889284 21.341322
v 0.000002 3.901620 27.471693
v -5.152345 18.708803 24.061726
v 0.000002 18.708803 24.061726
v -1.239632 36.512360 53.821777
v -1.247109 38.400917 51.637283
v 0.000005 36.512360 53.821777
v 0.000005 38.400917 51.637283
v 8.421680 3.889284 21.341322
v 8.421681 3.901620 27.471693
v 5.152349 18.708803 24.061724
v 1.239641 36.512360 53.821777
v 1.247118 38.400917 51.637283
v -14.755104 0.000002 9.347436
v -14.755106 5.936916 -14.118155
v -14.755104 17.388659 9.347435
v -14.755106 -0.000001 -14.116438
v -14.755103 8.621170 24.009724
v -14.755103 0.000002 24.009726
v -27.192146 0.000002 9.347437
v -27.192144 0.000002 24.009726
v -27.192144 5.379868 24.009726
v -27.192146 12.535624 9.347436
v -27.192148 4.047468 -14.118840
v -27.192148 -0.000001 -14.116437
v 14.755106 0.000001 9.347435
v 14.755106 17.388659 9.347434
v 14.755104 5.936916 -14.118087
v 14.755107 8.621170 24.009722
v 14.755104 -0.000002 -14.116440
v 14.755107 0.000002 24.009722
v 27.192146 0.000001 9.347434
v 27.192146 12.535624 9.347433
v 27.192148 5.379868 24.009722
v 27.192144 4.047466 -14.118844
v 27.192148 0.000002 24.009722
v 27.192144 -0.000001 -14.116441
vt 0.499998 0.332038
vt 0.578072 0.421886
vt 0.499998 0.421886
vt 0.603626 0.332025
vt 0.421925 0.421886
vt 0.586344 0.289061
vt 0.396371 0.332025
vt 0.499998 0.289064
vt 0.413653 0.289061
vt 0.499998 0.609375
vt 0.578178 0.609375
vt 0.667817 0.406043
vt 0.552519 0.097811
vt 0.447478 0.097811
vt 0.667817 0.677103
vt 0.711073 0.614747
vt 0.711073 0.399343
vt 0.421819 0.609375
vt 0.499998 0.097811
vt 0.499998 0.027591
vt 0.560711 0.027591
vt 0.798835 0.573878
vt 0.332180 0.406043
vt 0.332180 0.677103
vt 0.439286 0.027591
vt 0.772430 0.644709
vt 0.288924 0.614747
vt 0.288924 0.399343
vt 0.201162 0.573878
vt 0.227567 0.644709
vt 0.499998 0.722656
vt 0.541793 0.656250
vt 0.599183 0.722656
vt 0.499998 0.656250
vt 0.597980 0.789063
vt 0.458204 0.656250
vt 0.499998 0.789063
vt 0.400814 0.722656
vt 0.402017 0.789063
vt 0.584622 0.921875
vt 0.415375 0.921875
vt 0.499998 0.921875
vt 0.565559 0.984375
vt 0.499998 0.984375
vt 0.434438 0.984375
vt 0.842341 0.648438
vt 0.851548 0.648648
vt 0.859950 0.750000
vt 0.812500 0.750000
vt 0.812500 0.648438
vt 0.812500 0.640625
vt 0.847161 0.640625
vt 0.888790 0.745853
vt 0.935400 0.707767
vt 0.812500 0.542969
vt 0.878338 0.542969
vt 0.157655 0.648438
vt 0.140047 0.750000
vt 0.148449 0.648648
vt 0.187497 0.750000
vt 0.187497 0.648438
vt 0.187497 0.640625
vt 0.152836 0.640625
vt 0.111207 0.745853
vt 0.064597 0.707767
vt 0.187497 0.542969
vt 0.121659 0.542969
vt 0.867188 0.882812
vt 0.947533 0.765625
vt 0.971900 0.882813
vt 0.867188 0.765625
vt 0.930464 0.984375
vt 0.867188 0.984375
vt 0.991779 0.956193
vt 0.132809 0.882812
vt 0.028097 0.882813
vt 0.052464 0.765625
vt 0.069532 0.984375
vt 0.132809 0.765625
vt 0.132809 0.984375
vt 0.008218 0.956193
vt 0.718982 0.790513
vt 0.681032 0.800781
vt 0.702537 0.734375
vt 0.755174 0.710550
vt 0.796091 0.758738
vt 0.764460 0.821792
vt 0.673999 0.734375
vt 0.625000 0.800781
vt 0.668156 0.851563
vt 0.844443 0.880926
vt 0.625000 0.734375
vt 0.625000 0.851563
vt 0.625000 0.890625
vt 0.684147 0.890625
vt 0.752723 0.873816
vt 0.808726 0.931914
vt 0.669188 0.980469
vt 0.733762 0.967231
vt 0.625000 0.980469
vt 0.706264 0.886447
vt 0.281015 0.790513
vt 0.297460 0.734375
vt 0.318965 0.800781
vt 0.244823 0.710550
vt 0.203906 0.758738
vt 0.235537 0.821792
vt 0.325998 0.734375
vt 0.374997 0.800781
vt 0.331841 0.851563
vt 0.155554 0.880926
vt 0.247274 0.873816
vt 0.374997 0.734375
vt 0.374997 0.851563
vt 0.374997 0.890625
vt 0.315850 0.890625
vt 0.191271 0.931914
vt 0.266235 0.967231
vt 0.293733 0.886447
vt 0.330809 0.980469
vt 0.374997 0.980469
vt 0.710712 0.863891
vt 0.717273 0.813212
vt 0.735498 0.857291
vt 0.697865 0.818590
vt 0.690877 0.845555
vt 0.741646 0.829846
vt 0.282477 0.812759
vt 0.289216 0.863308
vt 0.264818 0.856333
vt 0.301883 0.818225
vt 0.258470 0.829636
vt 0.308325 0.846106
vt 0.992188 0.355504
vt 0.935687 0.398586
vt 0.935687 0.355433
vt 0.992188 0.398586
vt 0.957150 0.253907
vt 0.992188 0.253905
vt 0.984375 0.687500
vt 0.864489 0.478142
vt 0.899098 0.378000
vt 0.962356 0.691305
vt 0.992188 0.687500
vt 0.992188 0.710938
vt 0.984375 0.710938
vt 0.007813 0.355504
vt 0.064314 0.355433
vt 0.064314 0.398586
vt 0.042850 0.253907
vt 0.007813 0.398586
vt 0.007813 0.253905
vt 0.135511 0.478142
vt 0.015625 0.687500
vt 0.100902 0.378000
vt 0.037644 0.691305
vt 0.015625 0.710938
vt 0.007813 0.710938
vt 0.007813 0.687500
vt 0.796868 0.128910
vt 0.640616 0.089269
vt 0.796871 0.011182
vt 0.640627 0.128906
vt 0.898432 0.069749
vt 0.898431 0.128912
vt 0.796866 0.210942
vt 0.898429 0.210944
vt 0.898428 0.247810
vt 0.796864 0.295837
vt 0.640608 0.237994
vt 0.640625 0.210938
vt 0.933913 0.210945
vt 0.955294 0.128914
vt 0.613929 0.210937
vt 0.601469 0.128905
vt 0.203129 0.128910
vt 0.203126 0.011182
vt 0.359381 0.089269
vt 0.101564 0.069749
vt 0.359370 0.128906
vt 0.101566 0.128912
vt 0.203131 0.210942
vt 0.203133 0.295837
vt 0.101569 0.247810
vt 0.359389 0.237994
vt 0.101568 0.210944
vt 0.359372 0.210938
vt 0.066084 0.210945
vt 0.044703 0.128914
vt 0.386068 0.210937
vt 0.398528 0.128905
vt 0.983004 0.031251
vt 0.992188 0.031249
vt 0.016996 0.031251
vt 0.007813 0.031249
vt 0.777115 0.382720
vt 0.614519 0.318119
vt 0.823190 0.384104
vt 0.927774 0.331036
vt 0.222882 0.382720
vt 0.385478 0.318119
vt 0.176807 0.384104
vt 0.072223 0.331036
vn -0.0000 -0.1745 0.9847
vn -0.2477 -0.6669 0.7028
vn -0.0000 -0.6586 0.7525
vn -0.7308 -0.1206 0.6719
vn 0.2477 -0.6669 0.7028
vn -0.4570 0.2866 0.8420
vn 0.7308 -0.1207 0.6718
vn 0.0000 0.5117 0.8592
vn 0.4570 0.2866 0.8420
vn -0.2433 -0.8737 0.4213
vn -0.0000 -0.9839 -0.1790
vn 0.0000 -0.8750 0.4841
vn -0.4302 -0.8486 -0.3078
vn -0.5395 -0.7169 0.4416
vn -0.9281 -0.1391 0.3453
vn -0.6923 -0.6529 -0.3072
vn 0.2433 -0.8737 0.4213
vn -0.4528 0.5819 0.6756
vn -0.0000 0.7583 0.6519
vn -0.3101 0.9392 0.1473
vn 0.4528 0.5819 0.6756
vn 0.3101 0.9392 0.1473
vn -0.9145 -0.0498 -0.4016
vn -0.9361 0.0318 0.3502
vn -0.9213 0.3888 0.0044
vn -0.9074 0.1233 -0.4017
vn -0.7113 0.4298 0.5562
vn 0.4302 -0.8486 -0.3078
vn 0.0000 0.9888 0.1493
vn -0.3102 0.9493 -0.0503
vn -0.0000 0.9991 -0.0433
vn 0.0000 0.8592 -0.5116
vn -0.4071 0.7270 -0.5529
vn 0.3102 0.9493 -0.0503
vn -0.5738 0.8181 0.0372
vn 0.6923 -0.6529 -0.3072
vn 0.9281 -0.1391 0.3453
vn 0.5395 -0.7169 0.4416
vn 0.9145 -0.0498 -0.4016
vn 0.4071 0.7270 -0.5529
vn -0.6680 0.5784 -0.4681
vn 0.9074 0.1233 -0.4017
vn 0.9213 0.3888 0.0044
vn 0.9361 0.0318 0.3502
vn 0.7113 0.4298 0.5562
vn 0.5738 0.8181 0.0372
vn 0.6680 0.5784 -0.4681
vn -0.0000 0.0867 0.9962
vn -0.3325 0.7455 0.5777
vn -0.5591 0.2625 0.7865
vn 0.0000 0.7289 0.6847
vn -0.0000 -0.0287 0.9996
vn -0.5717 0.1373 0.8089
vn -0.6446 -0.3259 0.6916
vn 0.3325 0.7455 0.5777
vn -0.0000 -0.6846 0.7289
vn 0.5591 0.2625 0.7865
vn 0.6446 -0.3259 0.6916
vn 0.5717 0.1373 0.8089
vn -0.6584 -0.5456 0.5185
vn -0.5950 -0.7916 0.1393
vn -0.0000 -0.8419 0.5396
vn 0.6584 -0.5456 0.5185
vn 0.5950 -0.7916 0.1393
vn -0.0000 -0.9842 0.1769
vn -0.5932 -0.8031 0.0561
vn -0.5469 -0.8289 -0.1172
vn -0.0000 -0.9947 0.1026
vn 0.0000 -0.9999 -0.0142
vn 0.5932 -0.8031 0.0561
vn 0.5469 -0.8289 -0.1172
vn -0.4617 0.0300 -0.8865
vn -0.7582 -0.3958 -0.5181
vn -0.6053 0.4932 -0.6248
vn -0.2257 0.1549 -0.9618
vn -0.3868 0.6092 -0.6923
vn 0.0000 0.6656 -0.7463
vn 0.0000 0.1016 -0.9948
vn -0.2297 -0.2764 -0.9332
vn -0.0000 -0.3236 -0.9462
vn 0.0000 -0.8641 -0.5033
vn -0.5103 -0.6807 -0.5256
vn -0.8990 0.1775 -0.4004
vn -0.7599 -0.4673 -0.4518
vn -0.7998 -0.5631 -0.2077
vn -0.9305 0.0998 -0.3524
vn -0.0000 -0.9320 -0.3624
vn -0.5283 -0.7610 -0.3765
vn 0.4617 0.0300 -0.8865
vn 0.6053 0.4932 -0.6248
vn 0.7582 -0.3958 -0.5181
vn 0.2257 0.1549 -0.9618
vn 0.3868 0.6092 -0.6923
vn 0.2297 -0.2764 -0.9332
vn 0.5103 -0.6807 -0.5256
vn 0.8990 0.1775 -0.4004
vn 0.7599 -0.4673 -0.4518
vn 0.9305 0.0998 -0.3524
vn 0.7998 -0.5631 -0.2077
vn 0.5283 -0.7610 -0.3765
vn -0.0000 -0.2818 -0.9595
vn -0.4285 -0.7406 -0.5176
vn -0.7133 -0.1661 -0.6809
vn 0.0000 -0.9189 -0.3944
vn 0.0000 -0.0370 -0.9993
vn -0.6965 0.1230 -0.7069
vn -0.4077 0.5602 -0.7211
vn -0.0000 0.7219 -0.6920
vn 0.7133 -0.1661 -0.6809
vn 0.4285 -0.7406 -0.5176
vn 0.4077 0.5602 -0.7211
vn 0.6965 0.1230 -0.7069
vn -0.9376 0.2322 -0.2589
vn -0.6748 0.6013 -0.4278
vn -0.9120 0.2025 -0.3568
vn -0.9654 0.1414 -0.2192
vn -0.9416 0.1118 -0.3176
vn -0.8152 -0.5534 -0.1706
vn -0.9541 0.1571 -0.2550
vn -0.8142 -0.5401 -0.2128
vn -0.8598 -0.5091 -0.0397
vn -0.9599 0.1683 -0.2243
vn -0.8680 -0.4966 -0.0057
vn -0.9911 0.0599 -0.1191
vn -0.6646 0.6056 -0.4376
vn -0.6077 0.5278 -0.5934
vn -0.9059 0.2091 -0.3684
vn -0.4529 0.7380 -0.5002
vn -0.0000 0.8272 -0.5619
vn -0.3884 0.6490 -0.6542
vn -0.1015 0.8916 -0.4412
vn -0.8642 -0.5028 0.0180
vn -0.8999 -0.2264 0.3726
vn -0.9938 0.0552 -0.0970
vn -0.0000 0.7040 -0.7102
vn 0.0000 0.8987 -0.4386
vn -0.1015 0.9275 -0.3599
vn 0.0000 0.9796 -0.2009
vn 0.0000 0.9340 -0.3573
vn -0.4464 0.8617 -0.2413
vn -0.9561 0.2830 -0.0763
vn -0.9033 -0.2488 0.3495
vn -0.8560 0.2079 0.4733
vn -0.9602 0.2605 -0.1008
vn -0.3209 0.9219 0.2171
vn -0.7788 0.3902 0.4912
vn -0.5167 0.8202 0.2457
vn -0.9011 0.4260 -0.0808
vn -0.0000 0.9363 0.3511
vn -0.5374 0.7957 0.2792
vn -0.6532 0.7371 -0.1733
vn -0.9153 0.3998 -0.0482
vn 0.9376 0.2322 -0.2589
vn 0.9120 0.2025 -0.3568
vn 0.6748 0.6013 -0.4278
vn 0.9654 0.1414 -0.2192
vn 0.8152 -0.5534 -0.1706
vn 0.9416 0.1118 -0.3176
vn 0.9541 0.1571 -0.2550
vn 0.8598 -0.5091 -0.0397
vn 0.8142 -0.5401 -0.2128
vn 0.9599 0.1683 -0.2243
vn 0.9911 0.0599 -0.1191
vn 0.8680 -0.4966 -0.0057
vn 0.6646 0.6056 -0.4376
vn 0.9059 0.2091 -0.3684
vn 0.6077 0.5278 -0.5934
vn 0.4529 0.7380 -0.5002
vn 0.3884 0.6490 -0.6542
vn 0.1015 0.8916 -0.4412
vn 0.9938 0.0552 -0.0970
vn 0.8999 -0.2264 0.3726
vn 0.8642 -0.5028 0.0180
vn 0.9561 0.2830 -0.0763
vn 0.1015 0.9275 -0.3599
vn 0.4464 0.8617 -0.2413
vn 0.9602 0.2605 -0.1008
vn 0.8560 0.2079 0.4733
vn 0.9033 -0.2488 0.3495
vn 0.9011 0.4260 -0.0808
vn 0.5167 0.8202 0.2457
vn 0.7788 0.3902 0.4912
vn 0.9153 0.3998 -0.0482
vn 0.6532 0.7371 -0.1733
vn 0.5374 0.7957 0.2792
vn 0.3209 0.9219 0.2171
vn -0.6595 0.7103 -0.2461
vn -0.9340 0.2595 -0.2456
vn -0.9203 0.3725 -0.1193
vn -0.6736 0.7015 -0.2327
vn -0.6787 0.6167 -0.3989
vn -0.9413 0.2465 -0.2306
vn -0.5587 0.7842 -0.2700
vn -0.2287 0.8877 -0.3997
vn -0.5648 0.7018 -0.4342
vn -0.9501 0.2971 -0.0955
vn -0.9581 0.1828 -0.2205
vn -0.9905 0.0747 -0.1155
vn 0.9340 0.2595 -0.2456
vn 0.6595 0.7103 -0.2461
vn 0.9203 0.3725 -0.1193
vn 0.9413 0.2465 -0.2306
vn 0.6787 0.6167 -0.3989
vn 0.6736 0.7015 -0.2327
vn 0.9581 0.1828 -0.2205
vn 0.9501 0.2971 -0.0955
vn 0.9905 0.0747 -0.1155
vn 0.5648 0.7018 -0.4342
vn 0.2287 0.8877 -0.3997
vn 0.5587 0.7842 -0.2700
vn -0.0000 -0.7893 -0.6140
vn -0.5406 -0.8303 0.1355
vn -0.5422 -0.6600 -0.5200
vn 0.0000 -0.8814 0.4724
vn -0.0000 -0.4539 -0.8911
vn -0.5304 -0.2894 -0.7968
vn -0.5922 0.3230 -0.7382
vn -0.0000 0.5665 -0.8241
vn -0.8496 -0.5082 0.1411
vn -0.7493 0.2096 0.6282
vn -0.8362 0.3205 -0.4451
vn -0.8155 -0.2781 -0.5076
vn -0.7448 0.1711 0.6450
vn -0.6323 0.7693 -0.0909
vn -0.8554 0.2905 -0.4289
vn -0.4657 0.3598 0.8085
vn -0.0000 0.2891 0.9573
vn 0.0000 0.9076 0.4199
vn -0.3224 0.9435 0.0766
vn 0.5422 -0.6600 -0.5200
vn 0.5406 -0.8303 0.1355
vn 0.5922 0.3230 -0.7382
vn 0.5304 -0.2894 -0.7968
vn 0.8496 -0.5082 0.1411
vn 0.8362 0.3205 -0.4451
vn 0.7493 0.2096 0.6282
vn 0.8155 -0.2782 -0.5076
vn 0.7448 0.1711 0.6450
vn 0.8554 0.2905 -0.4289
vn 0.6323 0.7693 -0.0909
vn 0.4657 0.3598 0.8085
vn 0.3224 0.9435 0.0766
vn 0.8898 -0.4560 -0.0193
vn 0.8350 0.2676 -0.4808
vn 0.5635 0.8252 0.0392
vn 0.6377 -0.3358 -0.6932
vn 0.8261 0.2380 0.5107
vn 0.5510 -0.5660 0.6132
vn -0.8855 -0.4634 0.0339
vn -0.7515 -0.4454 0.4868
vn -0.7581 0.2842 0.5870
vn -0.9071 0.4204 0.0227
vn -0.7571 0.3118 -0.5741
vn -0.6221 -0.6724 -0.4011
vn 0.1990 -0.5128 0.8351
vn -0.4563 0.2758 0.8460
vn -0.4580 -0.4421 0.7712
vn 0.5536 0.2399 0.7975
vn 0.2015 -0.8005 0.5644
vn -0.4635 -0.7389 0.4890
vn -0.6404 -0.7673 0.0344
vn 0.6474 -0.7619 -0.0197
vn -0.2812 -0.8848 -0.3715
vn 0.3245 -0.6459 -0.6910
vn -0.2986 -0.6535 -0.6955
vn -0.4562 0.3033 -0.8366
vn 0.2988 -0.3087 -0.9030
vn 0.5697 0.2719 -0.7756
vn -0.8898 -0.4560 -0.0193
vn -0.5635 0.8252 0.0392
vn -0.8350 0.2676 -0.4808
vn -0.8261 0.2380 0.5107
vn -0.6377 -0.3358 -0.6932
vn -0.5510 -0.5660 0.6132
vn 0.8855 -0.4634 0.0339
vn 0.9071 0.4204 0.0227
vn 0.7581 0.2842 0.5870
vn 0.7570 0.3118 -0.5742
vn 0.7515 -0.4454 0.4868
vn 0.6221 -0.6724 -0.4011
vn -0.1990 -0.5128 0.8351
vn 0.4580 -0.4421 0.7712
vn 0.4563 0.2758 0.8460
vn -0.2015 -0.8005 0.5644
vn 0.6404 -0.7673 0.0344
vn 0.4635 -0.7389 0.4890
vn -0.5536 0.2399 0.7975
vn -0.6474 -0.7619 -0.0197
vn 0.2812 -0.8848 -0.3715
vn -0.3245 -0.6459 -0.6910
vn -0.2988 -0.3088 -0.9030
vn 0.4562 0.3033 -0.8366
vn 0.2986 -0.6535 -0.6955
vn -0.5697 0.2718 -0.7756
vn 0.0000 0.7135 -0.7006
vn -0.3111 0.9138 -0.2612
vn -0.0001 0.9950 0.0999
vn -0.5949 0.5037 -0.6264
vn -0.0000 -0.7556 0.6551
vn -0.4804 -0.0354 0.8763
vn -0.5544 -0.7493 0.3621
vn 0.0000 -0.0909 0.9959
vn 0.3111 0.9138 -0.2612
vn 0.5949 0.5037 -0.6264
vn 0.4804 -0.0354 0.8763
vn 0.5544 -0.7493 0.3621
vn 0.1737 0.9815 -0.0807
vn 0.5453 0.5496 -0.6329
vn -0.4927 0.5456 -0.6779
vn 0.1179 0.9917 -0.0513
vn -0.5458 0.5382 -0.6422
vn -0.7446 0.6645 -0.0634
vn -0.7421 0.6564 0.1354
vn -0.5408 0.4993 0.6769
vn 0.1216 0.9814 0.1483
vn -0.5113 0.4973 0.7009
vn 0.5124 0.5098 0.6910
vn 0.1519 0.9736 0.1707
vn -0.1737 0.9815 -0.0807
vn 0.4927 0.5456 -0.6779
vn -0.5453 0.5496 -0.6329
vn -0.1179 0.9917 -0.0513
vn 0.7446 0.6645 -0.0634
vn 0.5458 0.5383 -0.6422
vn 0.7421 0.6564 0.1354
vn -0.1216 0.9814 0.1483
vn 0.5408 0.4993 0.6769
vn -0.1519 0.9736 0.1707
vn -0.5123 0.5099 0.6910
vn 0.5113 0.4973 0.7009
usemtl Material_#114.002
s 1
f 1/1/1 2/2/2 3/3/3
f 1/1/1 4/4/4 2/2/2
f 1/1/1 3/3/3 5/5/5
f 1/1/1 6/6/6 4/4/4
f 1/1/1 5/5/5 7/7/7
f 1/1/1 8/8/8 6/6/6
f 1/1/1 7/7/7 9/9/9
f 1/1/1 9/9/9 8/8/8
f 2/2/10 10/10/11 3/3/12
f 2/2/10 11/11/13 10/10/11
f 2/2/14 4/12/15 11/11/16
f 3/3/12 10/10/11 5/5/17
f 6/6/18 8/8/19 12/13/20
f 9/9/21 13/14/22 8/8/19
f 4/12/15 14/15/23 11/11/16
f 4/12/24 15/16/25 14/15/26
f 4/12/24 6/17/27 15/16/25
f 10/10/11 16/18/28 5/5/17
f 12/13/20 8/8/19 17/19/29
f 12/13/30 17/19/31 18/20/32
f 12/13/30 18/20/32 19/21/33
f 17/19/31 13/14/34 18/20/32
f 17/19/29 8/8/19 13/14/22
f 6/17/27 12/22/35 15/16/25
f 16/18/36 7/23/37 5/5/38
f 16/18/36 20/24/39 7/23/37
f 18/20/32 13/14/34 21/25/40
f 12/22/35 19/26/41 15/16/25
f 20/24/42 22/27/43 7/23/44
f 22/27/43 9/28/45 7/23/44
f 22/27/43 13/29/46 9/28/45
f 22/27/43 21/30/47 13/29/46
f 23/31/48 24/32/49 25/33/50
f 23/31/48 26/34/51 24/32/49
f 23/31/52 25/33/53 27/35/54
f 23/31/48 28/36/55 26/34/51
f 23/31/52 27/35/54 29/37/56
f 23/31/48 30/38/57 28/36/55
f 23/31/52 29/37/56 31/39/58
f 23/31/52 31/39/58 30/38/59
f 27/35/60 32/40/61 29/37/62
f 31/39/63 29/37/62 33/41/64
f 32/40/61 34/42/65 29/37/62
f 32/40/66 35/43/67 34/42/68
f 29/37/62 34/42/65 33/41/64
f 35/43/67 36/44/69 34/42/68
f 33/41/70 34/42/68 37/45/71
f 37/45/71 34/42/68 36/44/69
f 38/46/72 39/47/73 40/48/74
f 38/46/75 40/48/76 41/49/77
f 38/46/75 41/49/77 42/50/78
f 38/46/79 42/50/80 43/51/81
f 38/46/79 43/51/81 39/52/82
f 39/47/73 44/53/83 40/48/74
f 39/47/84 35/54/85 44/53/86
f 43/51/87 36/55/69 39/52/88
f 36/55/69 35/56/67 39/52/88
f 45/57/89 46/58/90 47/59/91
f 45/57/92 41/60/77 46/58/93
f 45/57/92 42/61/78 41/60/77
f 45/57/94 43/62/81 42/61/80
f 45/57/94 47/63/95 43/62/81
f 47/59/91 46/58/90 48/64/96
f 47/59/97 48/64/98 37/65/99
f 47/63/100 36/66/69 43/62/87
f 47/63/100 37/67/71 36/66/69
f 49/68/101 11/69/102 14/70/103
f 49/68/101 10/71/104 11/69/102
f 49/68/105 14/70/106 19/72/107
f 49/68/105 19/72/107 18/73/108
f 14/70/26 15/74/25 19/72/41
f 49/75/101 20/76/109 16/77/110
f 49/75/105 21/78/111 20/76/112
f 49/75/101 16/77/110 10/79/104
f 49/75/105 18/80/108 21/78/111
f 20/76/42 21/78/47 22/81/43
f 50/82/113 51/83/114 44/84/115
f 50/82/116 44/84/117 35/85/118
f 50/82/119 35/85/120 32/86/121
f 50/82/122 32/86/123 52/87/124
f 51/83/125 40/88/126 44/84/127
f 51/83/128 53/89/129 40/88/130
f 51/83/128 54/90/131 53/89/129
f 32/86/132 27/91/133 52/87/134
f 40/88/130 53/89/129 41/92/135
f 54/90/131 55/93/136 53/89/129
f 54/90/137 56/94/138 55/93/139
f 54/90/137 57/95/140 56/94/138
f 27/91/133 58/96/141 52/87/134
f 27/91/142 25/97/143 58/96/144
f 57/95/140 24/98/145 56/94/138
f 25/97/146 24/99/147 58/96/148
f 24/98/145 26/100/149 56/94/138
f 24/99/150 57/101/151 58/96/152
f 59/102/153 48/103/154 60/104/155
f 59/102/156 37/105/157 48/103/158
f 59/102/159 33/106/160 37/105/161
f 59/102/162 61/107/163 33/106/164
f 60/104/165 48/103/166 46/108/167
f 60/104/168 46/108/169 53/109/129
f 60/104/168 53/109/129 62/110/170
f 61/107/171 31/111/172 33/106/173
f 61/107/171 63/112/174 31/111/172
f 46/108/169 41/113/135 53/109/129
f 62/110/170 53/109/129 55/114/136
f 62/110/175 55/114/139 56/115/138
f 62/110/175 56/115/138 64/116/176
f 63/112/177 30/117/178 31/111/179
f 63/112/180 28/118/181 30/117/182
f 63/112/183 64/119/184 28/118/185
f 56/115/138 28/120/186 64/116/176
f 56/115/138 26/121/149 28/120/186
f 57/122/187 50/123/188 58/124/189
f 57/122/190 51/125/191 50/123/192
f 57/122/193 54/126/194 51/125/195
f 58/124/196 50/123/197 52/127/198
f 59/128/199 64/129/200 63/130/201
f 59/128/202 60/131/203 64/129/204
f 59/128/205 63/130/206 61/132/207
f 60/131/208 62/133/209 64/129/210
f 65/134/211 66/135/212 67/136/213
f 65/134/211 68/137/214 66/135/212
f 65/134/215 67/136/216 69/138/217
f 65/134/215 69/138/217 70/139/218
f 66/135/219 71/140/220 69/141/221
f 66/135/219 69/141/221 67/142/222
f 71/140/223 72/143/224 69/141/225
f 71/140/226 73/144/227 74/145/228
f 71/140/226 74/145/228 72/146/229
f 65/147/211 75/148/230 76/149/231
f 65/147/215 77/150/232 75/148/233
f 65/147/211 76/149/231 68/151/214
f 65/147/215 70/152/218 77/150/232
f 76/149/234 77/153/235 78/154/236
f 76/149/234 75/155/237 77/153/235
f 78/154/238 77/153/239 79/156/240
f 78/154/241 79/157/242 74/158/228
f 78/154/241 74/158/228 73/159/227
f 80/160/243 81/161/244 82/162/245
f 80/160/243 83/163/246 81/161/244
f 80/160/243 82/162/245 84/164/247
f 80/160/243 84/164/247 85/165/248
f 86/166/249 87/167/250 88/168/251
f 86/166/249 88/168/251 89/169/252
f 86/166/249 89/169/252 90/170/253
f 86/166/249 90/170/253 91/171/254
f 85/165/255 88/172/256 87/167/257
f 85/165/255 84/173/258 88/172/256
f 85/165/259 87/167/260 86/166/261
f 85/165/259 86/166/261 80/160/262
f 86/166/261 91/171/263 80/160/262
f 91/171/263 83/163/264 80/160/262
f 91/171/265 90/174/266 83/163/267
f 90/174/266 81/175/268 83/163/267
f 92/176/269 93/177/270 94/178/271
f 92/176/269 95/179/272 93/177/270
f 92/176/269 94/178/271 96/180/273
f 92/176/269 97/181/274 95/179/272
f 98/182/275 99/183/276 100/184/277
f 98/182/275 101/185/278 99/183/276
f 98/182/275 100/184/277 102/186/279
f 98/182/275 103/187/280 101/185/278
f 97/181/281 102/186/282 100/188/283
f 97/181/284 98/182/285 102/186/286
f 97/181/281 100/188/283 95/189/287
f 97/181/284 92/176/288 98/182/285
f 92/176/288 103/187/289 98/182/285
f 92/176/288 96/180/290 103/187/289
f 96/180/291 101/190/292 103/187/293
f 96/180/291 94/191/294 101/190/292
f 70/139/295 72/192/296 74/193/297
f 70/139/295 69/138/298 72/192/296
f 68/137/299 71/140/300 66/135/301
f 68/137/299 73/144/302 71/140/300
f 70/152/295 79/194/303 77/150/304
f 70/152/295 74/195/297 79/194/303
f 78/154/305 68/151/299 76/149/306
f 78/154/305 73/159/302 68/151/299
f 82/196/307 81/197/308 90/170/309
f 82/196/310 90/170/311 89/169/312
f 89/169/313 88/168/314 82/198/315
f 88/168/316 84/199/317 82/198/318
f 93/200/319 101/185/320 94/201/321
f 93/200/322 99/183/323 101/185/324
f 99/183/325 93/202/326 100/184/327
f 93/202/328 95/203/329 100/184/330
