# Aspose.3D Wavefront OBJ Exporter
# Copyright 2004-2023 Aspose Pty Ltd.
# File created: 11/07/2023 12:14:23


#
# object Porygon
#

v 0 34.36860000000000072 23.00639999999999929
v 16.11959999999999838 30.97500000000000144 4.83659000000000016
v 0 30.97500000000000144 4.83659000000000016
v 21.50870000000000104 34.36860000000000072 23.00639999999999929
v -16.11959999999999838 30.97500000000000144 4.83659000000000016
v 18.10470000000000112 35.76599999999999824 31.6759999999999984
v -21.50870000000000104 34.36860000000000072 23.00639999999999929
v 0 35.76599999999999824 31.6759999999999984
v -18.10470000000000112 35.76599999999999824 31.6759999999999984
v 0 -8.56417000000000072 4.83659000000000016
v 16.11959999999999838 -8.56417000000000072 4.83659000000000016
v 11.33319999999999972 -1.1414899999999999 48.8858000000000032
v -11.33319999999999972 -1.1414899999999999 48.8858000000000032
v 21.50910000000000008 -22.92980000000000016 23.00639999999999929
v 18.10470000000000112 -9.73433999999999952 31.6759999999999984
v -16.11959999999999838 -8.56417000000000072 4.83659000000000016
v 0 -1.1414899999999999 48.8858000000000032
v 0 -15.94909999999999968 43.70430000000000344
v 13.39020000000000008 -15.94909999999999968 43.70430000000000344
v -21.50910000000000008 -22.92980000000000016 23.00639999999999929
v -13.39020000000000008 -15.94909999999999968 43.70430000000000344
v -18.10470000000000112 -9.73433999999999952 31.6759999999999984
v 0 14.4901 66.49920000000000184
v 8.72737000000000048 11.54260000000000016 80
v 20.7859000000000016 14.4901 66.49920000000000184
v 0 11.54260000000000016 80
v 20.16460000000000008 11.13599999999999924 53.18180000000000264
v -8.72737000000000048 11.54260000000000016 80
v 0 11.13599999999999924 53.18180000000000264
v -20.7859000000000016 14.4901 66.49920000000000184
v -20.16460000000000008 11.13599999999999924 53.18180000000000264
v 18.01569999999999893 -15.94870000000000048 43.70430000000000344
v -18.01569999999999893 -15.94870000000000048 43.70430000000000344
v 0 -15.94870000000000048 43.70430000000000344
v 13.85389999999999936 -29.00509999999999877 43.22990000000000064
v 0 -29.00509999999999877 43.22990000000000064
v -13.85389999999999936 -29.00509999999999877 43.22990000000000064
v 6.29678000000000004 -50.9091999999999984 43.40409999999999968
v 7.30984999999999996 -49.53499999999999656 42.484099999999998
v 10.17029999999999922 -36.26209999999999668 59.30169999999999676
v 0 -36.26209999999999668 59.30180000000000008
v 0 -50.9091999999999984 43.40409999999999968
v 0 -49.53499999999999656 42.484099999999998
v 13.4048999999999996 -32.86260000000000048 55.21070000000000276
v -6.29678000000000004 -50.9091999999999984 43.40409999999999968
v -10.17029999999999922 -36.26209999999999668 59.30169999999999676
v -7.30984999999999996 -49.53499999999999656 42.484099999999998
v -13.4048999999999996 -32.86260000000000048 55.21070000000000276
v 0 -22.92980000000000016 23.00639999999999929
v 15.31160000000000032 -21.64399999999999832 60.7028999999999996
v 11.5427 -24.6433 67.515900000000002
v 17.74370000000000048 -10.07939999999999969 57.98510000000000272
v 0 -24.6433 67.515900000000002
v 8.69846000000000072 -15.1338000000000008 73.82750000000000064
v 0 -15.1338000000000008 73.82739999999999728
v 0 -6.61610999999999992 75.83469999999999792
v 11.94439999999999984 -6.61610999999999992 75.83469999999999792
v 17.48379999999999864 -3.02185000000000014 67.45090000000000432
v -15.31160000000000032 -21.64399999999999832 60.7028999999999996
v -11.5427 -24.6433 67.515900000000002
v -17.74370000000000048 -10.07939999999999969 57.98510000000000272
v -8.69846000000000072 -15.1338000000000008 73.82750000000000064
v -17.48379999999999864 -3.02185000000000014 67.45090000000000432
v -11.94439999999999984 -6.61610999999999992 75.83469999999999792
v 0 31.1097999999999999 5.66950999999999984
v 12.2765000000000004 40.04619999999999891 5.6874900000000004
v 12.2765000000000004 31.1097999999999999 5.66950999999999984
v 0 40.04619999999999891 5.6874900000000004
v 7.51071000000000048 35.07540000000000191 27.27230000000000132
v 0 35.07540000000000191 27.27230000000000132
v 1.80705 78.45740000000000688 53.22500000000000144
v 1.81795 75.27299999999999612 55.9780000000000016
v 0 78.45740000000000688 53.22500000000000144
v 0 75.27299999999999612 55.9780000000000016
v -12.2765000000000004 31.1097999999999999 5.66950999999999984
v -12.2765000000000004 40.04619999999999891 5.6874900000000004
v -7.51071000000000048 35.07540000000000191 27.27230000000000132
v -1.80705 78.45740000000000688 53.22500000000000144
v -1.81795 75.27299999999999612 55.9780000000000016
v 21.50890000000000056 13.62599999999999944 0
v 21.50890000000000056 -20.58040000000000088 8.65440000000000072
v 21.50890000000000056 13.62599999999999944 25.3478999999999992
v 21.50890000000000056 -20.5778999999999996 0
v 21.50890000000000056 34.99960000000000096 12.56729999999999944
v 21.50890000000000056 34.99960000000000096 0
v 39.63870000000000008 13.62599999999999944 0
v 39.63870000000000008 34.99960000000000096 0
v 39.63870000000000008 34.99960000000000096 7.84236999999999984
v 39.63870000000000008 13.62599999999999944 18.27349999999999852
v 39.63870000000000008 -20.58139999999999856 5.90010000000000016
v 39.63870000000000008 -20.5778999999999996 0
v -21.50890000000000056 13.62599999999999944 -1E-06
v -21.50890000000000056 13.62599999999999944 25.3478999999999992
v -21.50890000000000056 -20.58030000000000112 8.65440000000000072
v -21.50890000000000056 34.99960000000000096 12.56729999999999944
v -21.50890000000000056 -20.5778999999999996 -2E-06
v -21.50890000000000056 34.99960000000000096 0
v -39.63870000000000008 13.62599999999999944 -1E-06
v -39.63870000000000008 13.62599999999999944 18.27349999999999852
v -39.63870000000000008 34.99960000000000096 7.84236999999999984
v -39.63870000000000008 -20.58139999999999856 5.90010000000000016
v -39.63870000000000008 34.99960000000000096 0
v -39.63870000000000008 -20.5778999999999996 0
# 103 vertices

vn 0 0.985206 -0.171376
vn 0.485154 0.527751 -0.69721200000000008
vn 0 0.638907 -0.769284
vn 0.766766 0.63990100000000008 -0.05096
vn -0.485154 0.527751 -0.69721200000000008
vn 0.50427200000000008 0.72091 0.475394
vn -0.766766 0.63990100000000008 -0.05096
vn 0 0.883585 0.46827
vn -0.50427200000000008 0.72091 0.475394
vn 0 -0.435773 -0.900057
vn 0.508223 -0.337144 -0.792492
vn 0.471748 0.037777 0.880924
vn -0.471748 0.037777 0.880924
vn 0.681204 -0.727656 -0.08048
vn 0.93081 0.00029 0.365504
vn -0.508223 -0.337144 -0.792492
vn 0 0.049838 0.998757
vn 0 -0.711097 0.703094
vn 0.498638 -0.551007 0.669142
vn -0.681204 -0.727656 -0.08048
vn -0.498638 -0.551007 0.669142
vn -0.93081 0.00029 0.365504
vn 0 0.999874 -0.015889
vn 0.305369 0.47156 0.827273
vn 0.74921 0.630471 0.202954
vn 0 0.535571 0.84449
vn 0.655317 0.540582 -0.527571
vn -0.305369 0.47156 0.827273
vn 0 0.738159 -0.674627
vn -0.74921 0.630471 0.202954
vn -0.655317 0.540582 -0.527571
vn 0.721095 -0.002697 -0.692831
vn -0.721095 -0.002697 -0.692831
vn 0 0.185383 -0.982666
vn 0.68000400000000008 -0.165989 -0.714172
vn 0 0.036307 -0.999341
vn -0.68000400000000008 -0.165989 -0.714172
vn 0.34528399999999996 -0.934999 -0.080972
vn 0.62412500000000008 -0.451208 -0.637871
vn 0.482353 -0.624233 0.614548
vn 0 -0.66002400000000008 0.751244
vn 0 -0.993024 -0.11791
vn 0 -0.273297 -0.96193
vn 0.932152 -0.328688 0.151847
vn -0.34528399999999996 -0.934999 -0.080972
vn -0.482353 -0.624233 0.614548
vn -0.62412500000000008 -0.451208 -0.637871
vn -0.932152 -0.328688 0.151847
vn 0 -0.985269 -0.171013
vn 0.941445 -0.242347 0.234413
vn 0.533335 -0.47436 0.700383
vn 0.98487 -0.13905999999999998 0.103407
vn 0 -0.56519699999999992 0.824956
vn 0.203848 -0.397588 0.894634
vn 0 -0.397412 0.91764
vn 0 -0.226476 0.974017
vn 0.525971 -0.206385 0.825082
vn 0.925704 -0.13764100000000002 0.352316
vn -0.941445 -0.242347 0.234413
vn -0.533335 -0.47436 0.700383
vn -0.98487 -0.13905999999999998 0.103407
vn -0.203848 -0.397588 0.894634
vn -0.925704 -0.13764100000000002 0.352316
vn -0.525971 -0.206385 0.825082
vn 0 -0.76765 -0.64087000000000008
vn 0.895437 0.000862 -0.445187
vn 0.628516 -0.616259 -0.474544
vn 0 0.002012 -0.999998
vn 0.768551 -0.57879 0.272638
vn 0 -0.983566 0.180552
vn 0.66652999999999992 0.472573 0.576551
vn 0.710051 0.461908 0.531478
vn 0 0.654006 0.756489
vn 0 0.654006 0.756489
vn -0.628516 -0.616259 -0.474544
vn -0.895437 0.000862 -0.445187
vn -0.768551 -0.57879 0.272638
vn -0.66652999999999992 0.472574 0.576551
vn -0.710051 0.461908 0.531478
vn -1 0 0
vn -1 0 0
vn -1 0 0
vn -1 0 0
vn -1 0 0
vn -1 0 0
vn 1 0 0
vn 1 0 0
vn 1 0 0
vn 1 0 0
vn 1 0 0
vn 1 0 0
vn 0 0.70710700000000008 -0.70710700000000008
vn 0.13817099999999998 0.888606 0.437364
vn 0 0.70710700000000008 -0.70710700000000008
vn 0.141678 0.827283 0.543627
vn 0 0 -1
vn 0 0 -1
vn 0 -0.706897 -0.707317
vn -5.6E-05 -0.706983 -0.70723100000000008
vn 0.111752 -0.858777 0.50001300000000008
vn 0.085379 -0.822514 0.562299
vn 1 0 0
vn 1 0 0
vn 1 0 0
vn 1 0 0
vn 1 0 0
vn 1 0 0
vn -1 0 0
vn -1 0 0
vn -1 0 0
vn -1 0 0
vn -1 0 0
vn -1 0 0
vn 0 0.70710700000000008 -0.70710700000000008
vn 0 0.70710700000000008 -0.70710700000000008
vn -0.13817099999999998 0.888606 0.437364
vn 0 0 -1
vn -0.141678 0.827283 0.543627
vn 0 0 -1
vn 0 -0.706897 -0.70731599999999992
vn 5.8E-05 -0.706986 -0.70722700000000008
vn -0.11175 -0.858777 0.50001300000000008
vn -0.08537599999999999 -0.822511 0.562304
vn 0 -0.58114600000000008 0.813799
vn 0 -0.58114600000000008 0.813799
vn 0 -0.58114600000000008 0.813799
vn 0 -0.58114600000000008 0.813799
vn 0 0.777817 -0.628491
vn 0 0.777817 -0.628491
vn 0 0.777817 -0.628491
vn 0 0.777817 -0.628491
vn 0 -0.58114600000000008 0.813799
vn 0 -0.58114600000000008 0.813799
vn 0 0.777817 -0.628491
vn 0 0.777817 -0.628491
vn 0.309083 0.047776 0.949834
vn 0.362964 0.054983 0.93018
vn -0.309083 0.047776 0.949834
vn -0.362964 0.054983 0.93018
# 139 vertex normals

vt 0.499998 0.332038 0
vt 0.578072 0.421886 0
vt 0.499998 0.421886 0
vt 0.603626 0.332025 0
vt 0.421925 0.421886 0
vt 0.586344 0.289061 0
vt 0.396371 0.332025 0
vt 0.499998 0.289064 0
vt 0.413653 0.289061 0
vt 0.499998 0.609375 0
vt 0.578178 0.609375 0
vt 0.667817 0.406043 0
vt 0.552519 0.097811 0
vt 0.447478 0.097811 0
vt 0.667817 0.677103 0
vt 0.71107299999999992 0.61474700000000008 0
vt 0.71107299999999992 0.399343 0
vt 0.421819 0.609375 0
vt 0.499998 0.097811 0
vt 0.499998 0.027591 0
vt 0.56071099999999992 0.027591 0
vt 0.798835 0.573878 0
vt 0.33217999999999996 0.406043 0
vt 0.33217999999999996 0.677103 0
vt 0.439286 0.027591 0
vt 0.77243 0.644709 0
vt 0.288924 0.61474700000000008 0
vt 0.288924 0.399343 0
vt 0.201162 0.573878 0
vt 0.227567 0.644709 0
vt 0.499998 0.722656 0
vt 0.541793 0.65625 0
vt 0.599183 0.722656 0
vt 0.499998 0.65625 0
vt 0.59797999999999992 0.789063 0
vt 0.458204 0.65625 0
vt 0.499998 0.789063 0
vt 0.400814 0.722656 0
vt 0.402017 0.789063 0
vt 0.584622 0.921875 0
vt 0.415375 0.921875 0
vt 0.499998 0.921875 0
vt 0.565559 0.984375 0
vt 0.499998 0.984375 0
vt 0.434438 0.984375 0
vt 0.842341 0.64843799999999992 0
vt 0.851548 0.648648 0
vt 0.85995 0.75 0
vt 0.8125 0.75 0
vt 0.8125 0.64843799999999992 0
vt 0.8125 0.640625 0
vt 0.847161 0.640625 0
vt 0.88879 0.745853 0
vt 0.9354 0.707767 0
vt 0.8125 0.542969 0
vt 0.878338 0.542969 0
vt 0.15765499999999998 0.64843799999999992 0
vt 0.140047 0.75 0
vt 0.148449 0.648648 0
vt 0.187497 0.75 0
vt 0.187497 0.64843799999999992 0
vt 0.187497 0.640625 0
vt 0.152836 0.640625 0
vt 0.111207 0.745853 0
vt 0.064597 0.707767 0
vt 0.187497 0.542969 0
vt 0.121659 0.542969 0
vt 0.867188 0.882812 0
vt 0.947533 0.765625 0
vt 0.9719 0.882813 0
vt 0.867188 0.765625 0
vt 0.930464 0.984375 0
vt 0.867188 0.984375 0
vt 0.991779 0.956193 0
vt 0.13280900000000002 0.882812 0
vt 0.028097 0.882813 0
vt 0.052464 0.765625 0
vt 0.069532 0.984375 0
vt 0.13280900000000002 0.765625 0
vt 0.13280900000000002 0.984375 0
vt 0.008218 0.956193 0
vt 0.718982 0.790513 0
vt 0.681032 0.800781 0
vt 0.702537 0.734375 0
vt 0.755174 0.71055 0
vt 0.796091 0.758738 0
vt 0.76446 0.821792 0
vt 0.673999 0.734375 0
vt 0.625 0.800781 0
vt 0.668156 0.851563 0
vt 0.844443 0.880926 0
vt 0.625 0.734375 0
vt 0.625 0.851563 0
vt 0.625 0.890625 0
vt 0.68414699999999992 0.890625 0
vt 0.752723 0.873816 0
vt 0.808726 0.931914 0
vt 0.669188 0.980469 0
vt 0.733762 0.967231 0
vt 0.625 0.980469 0
vt 0.706264 0.886447 0
vt 0.281015 0.790513 0
vt 0.29746 0.734375 0
vt 0.318965 0.800781 0
vt 0.244823 0.71055 0
vt 0.203906 0.758738 0
vt 0.235537 0.821792 0
vt 0.325998 0.734375 0
vt 0.374997 0.800781 0
vt 0.331841 0.851563 0
vt 0.155554 0.880926 0
vt 0.247274 0.873816 0
vt 0.374997 0.734375 0
vt 0.374997 0.851563 0
vt 0.374997 0.890625 0
vt 0.31585 0.890625 0
vt 0.191271 0.931914 0
vt 0.266235 0.967231 0
vt 0.29373300000000004 0.886447 0
vt 0.330809 0.980469 0
vt 0.374997 0.980469 0
vt 0.43613 1.97920999999999984 0
vt 0.30155 1.7997 0
vt 0.49115 1.88292 0
vt 0.25816 1.87477 0
vt 0.34011999999999996 1.96544 0
vt 0.42585 1.77901 0
vt 0.198446 1.7997 0
vt 0.06386600000000001 1.97920999999999984 0
vt 0.00884899999999999 1.88292 0
vt 0.241836 1.87477 0
vt 0.07414900000000001 1.77901 0
vt 0.15987299999999998 1.96544 0
vt 0.992188 0.355504 0
vt 0.935687 0.398586 0
vt 0.935687 0.355433 0
vt 0.992188 0.398586 0
vt 0.95715 0.253907 0
vt 0.992188 0.253905 0
vt 0.984375 0.6875 0
vt 0.864489 0.478142 0
vt 0.899098 0.378 0
vt 0.962356 0.69130499999999992 0
vt 0.992188 0.6875 0
vt 0.992188 0.71093799999999992 0
vt 0.984375 0.71093799999999992 0
vt 0.007813 0.355504 0
vt 0.064314 0.355433 0
vt 0.064314 0.398586 0
vt 0.04285 0.253907 0
vt 0.007813 0.398586 0
vt 0.007813 0.253905 0
vt 0.135511 0.478142 0
vt 0.015625 0.6875 0
vt 0.100902 0.378 0
vt 0.03764399999999999 0.69130499999999992 0
vt 0.015625 0.71093799999999992 0
vt 0.007813 0.71093799999999992 0
vt 0.007813 0.6875 0
vt 0.796868 0.12891 0
vt 0.640616 0.089269 0
vt 0.796871 0.01118199999999999 0
vt 0.64062699999999992 0.128906 0
vt 0.898432 0.06974900000000001 0
vt 0.898431 0.128912 0
vt 0.796866 0.210942 0
vt 0.898429 0.210944 0
vt 0.898428 0.24781 0
vt 0.796864 0.295837 0
vt 0.64060799999999992 0.237994 0
vt 0.640625 0.210938 0
vt 0.933913 0.210945 0
vt 0.955294 0.128914 0
vt 0.61392899999999992 0.210937 0
vt 0.601469 0.128905 0
vt 0.203129 0.12891 0
vt 0.203126 0.01118199999999999 0
vt 0.359381 0.089269 0
vt 0.101564 0.06974900000000001 0
vt 0.35937000000000004 0.128906 0
vt 0.101566 0.128912 0
vt 0.203131 0.210942 0
vt 0.203133 0.295837 0
vt 0.101569 0.24781 0
vt 0.359389 0.237994 0
vt 0.101568 0.210944 0
vt 0.35937200000000004 0.210938 0
vt 0.066084 0.210945 0
vt 0.044703 0.128914 0
vt 0.386068 0.210937 0
vt 0.398528 0.128905 0
vt 0.983004 0.031251 0
vt 0.992188 0.031249 0
vt 0.016996 0.031251 0
vt 0.007813 0.031249 0
vt 0.777115 0.38272 0
vt 0.614519 0.318119 0
vt 0.82319 0.384104 0
vt 0.927774 0.331036 0
vt 0.222882 0.38272 0
vt 0.385478 0.318119 0
vt 0.176807 0.384104 0
vt 0.072223 0.331036 0
# 203 texture coords

g Porygon
s 1
f 1/1/1 2/2/2 3/3/3
f 1/1/1 4/4/4 2/2/2
f 1/1/1 3/3/3 5/5/5
f 1/1/1 6/6/6 4/4/4
f 1/1/1 5/5/5 7/7/7
f 1/1/1 8/8/8 6/6/6
f 1/1/1 7/7/7 9/9/9
f 1/1/1 9/9/9 8/8/8
f 2/2/2 10/10/10 3/3/3
f 2/2/2 11/11/11 10/10/10
f 2/2/2 4/12/4 11/11/11
f 3/3/3 10/10/10 5/5/5
f 6/6/6 8/8/8 12/13/12
f 9/9/9 13/14/13 8/8/8
f 4/12/4 14/15/14 11/11/11
f 4/12/4 15/16/15 14/15/14
f 4/12/4 6/17/6 15/16/15
f 10/10/10 16/18/16 5/5/5
f 12/13/12 8/8/8 17/19/17
f 12/13/12 17/19/17 18/20/18
f 12/13/12 18/20/18 19/21/19
f 17/19/17 13/14/13 18/20/18
f 17/19/17 8/8/8 13/14/13
f 6/17/6 12/22/12 15/16/15
f 16/18/16 7/23/7 5/5/5
f 16/18/16 20/24/20 7/23/7
f 18/20/18 13/14/13 21/25/21
f 12/22/12 19/26/19 15/16/15
f 20/24/20 22/27/22 7/23/7
f 22/27/22 9/28/9 7/23/7
f 22/27/22 13/29/13 9/28/9
f 22/27/22 21/30/21 13/29/13
f 23/31/23 24/32/24 25/33/25
f 23/31/23 26/34/26 24/32/24
f 23/31/23 25/33/25 27/35/27
f 23/31/23 28/36/28 26/34/26
f 23/31/23 27/35/27 29/37/29
f 23/31/23 30/38/30 28/36/28
f 23/31/23 29/37/29 31/39/31
f 23/31/23 31/39/31 30/38/30
f 27/35/27 32/40/32 29/37/29
f 31/39/31 29/37/29 33/41/33
f 32/40/32 34/42/34 29/37/29
f 32/40/32 35/43/35 34/42/34
f 29/37/29 34/42/34 33/41/33
f 35/43/35 36/44/36 34/42/34
f 33/41/33 34/42/34 37/45/37
f 37/45/37 34/42/34 36/44/36
f 38/46/38 39/47/39 40/48/40
f 38/46/38 40/48/40 41/49/41
f 38/46/38 41/49/41 42/50/42
f 38/46/38 42/50/42 43/51/43
f 38/46/38 43/51/43 39/52/39
f 39/47/39 44/53/44 40/48/40
f 39/47/39 35/54/35 44/53/44
f 43/51/43 36/55/36 39/52/39
f 36/55/36 35/56/35 39/52/39
f 45/57/45 46/58/46 47/59/47
f 45/57/45 41/60/41 46/58/46
f 45/57/45 42/61/42 41/60/41
f 45/57/45 43/62/43 42/61/42
f 45/57/45 47/63/47 43/62/43
f 47/59/47 46/58/46 48/64/48
f 47/59/47 48/64/48 37/65/37
f 47/63/47 36/66/36 43/62/43
f 47/63/47 37/67/37 36/66/36
f 49/68/49 11/69/11 14/70/14
f 49/68/49 10/71/10 11/69/11
f 49/68/49 14/70/14 19/72/19
f 49/68/49 19/72/19 18/73/18
f 14/70/14 15/74/15 19/72/19
f 49/75/49 20/76/20 16/77/16
f 49/75/49 21/78/21 20/76/20
f 49/75/49 16/77/16 10/79/10
f 49/75/49 18/80/18 21/78/21
f 20/76/20 21/78/21 22/81/22
f 50/82/50 51/83/51 44/84/44
f 50/82/50 44/84/44 35/85/35
f 50/82/50 35/85/35 32/86/32
f 50/82/50 32/86/32 52/87/52
f 51/83/51 40/88/40 44/84/44
f 51/83/51 53/89/53 40/88/40
f 51/83/51 54/90/54 53/89/53
f 32/86/32 27/91/27 52/87/52
f 40/88/40 53/89/53 41/92/41
f 54/90/54 55/93/55 53/89/53
f 54/90/54 56/94/56 55/93/55
f 54/90/54 57/95/57 56/94/56
f 27/91/27 58/96/58 52/87/52
f 27/91/27 25/97/25 58/96/58
f 57/95/57 24/98/24 56/94/56
f 25/97/25 24/99/24 58/96/58
f 24/98/24 26/100/26 56/94/56
f 24/99/24 57/101/57 58/96/58
f 59/102/59 48/103/48 60/104/60
f 59/102/59 37/105/37 48/103/48
f 59/102/59 33/106/33 37/105/37
f 59/102/59 61/107/61 33/106/33
f 60/104/60 48/103/48 46/108/46
f 60/104/60 46/108/46 53/109/53
f 60/104/60 53/109/53 62/110/62
f 61/107/61 31/111/31 33/106/33
f 61/107/61 63/112/63 31/111/31
f 46/108/46 41/113/41 53/109/53
f 62/110/62 53/109/53 55/114/55
f 62/110/62 55/114/55 56/115/56
f 62/110/62 56/115/56 64/116/64
f 63/112/63 30/117/30 31/111/31
f 63/112/63 28/118/28 30/117/30
f 63/112/63 64/119/64 28/118/28
f 56/115/56 28/120/28 64/116/64
f 56/115/56 26/121/26 28/120/28
f 65/134/65 66/135/66 67/136/67
f 65/134/65 68/137/68 66/135/66
f 65/134/65 67/136/67 69/138/69
f 65/134/65 69/138/69 70/139/70
f 66/135/66 71/140/71 69/141/69
f 66/135/66 69/141/69 67/142/67
f 71/140/71 72/143/72 69/141/69
f 71/140/71 73/144/73 74/145/74
f 71/140/71 74/145/74 72/146/72
f 65/147/65 75/148/75 76/149/76
f 65/147/65 77/150/77 75/148/75
f 65/147/65 76/149/76 68/151/68
f 65/147/65 70/152/70 77/150/77
f 76/149/76 77/153/77 78/154/78
f 76/149/76 75/155/75 77/153/77
f 78/154/78 77/153/77 79/156/79
f 78/154/78 79/157/79 74/158/74
f 78/154/78 74/158/74 73/159/73
f 80/160/80 81/161/81 82/162/82
f 80/160/80 83/163/83 81/161/81
f 80/160/80 82/162/82 84/164/84
f 80/160/80 84/164/84 85/165/85
f 86/166/86 87/167/87 88/168/88
f 86/166/86 88/168/88 89/169/89
f 86/166/86 89/169/89 90/170/90
f 86/166/86 90/170/90 91/171/91
f 85/165/92 88/172/93 87/167/94
f 85/165/92 84/173/95 88/172/93
f 85/165/92 87/167/94 86/166/96
f 85/165/92 86/166/96 80/160/97
f 86/166/96 91/171/98 80/160/97
f 91/171/98 83/163/99 80/160/97
f 91/171/98 90/174/100 83/163/99
f 90/174/100 81/175/101 83/163/99
f 92/176/102 93/177/103 94/178/104
f 92/176/102 95/179/105 93/177/103
f 92/176/102 94/178/104 96/180/106
f 92/176/102 97/181/107 95/179/105
f 98/182/108 99/183/109 100/184/110
f 98/182/108 101/185/111 99/183/109
f 98/182/108 100/184/110 102/186/112
f 98/182/108 103/187/113 101/185/111
f 97/181/114 102/186/115 100/188/116
f 97/181/114 98/182/117 102/186/115
f 97/181/114 100/188/116 95/189/118
f 97/181/114 92/176/119 98/182/117
f 92/176/119 103/187/120 98/182/117
f 92/176/119 96/180/121 103/187/120
f 96/180/121 101/190/122 103/187/120
f 96/180/121 94/191/123 101/190/122
f 70/139/124 72/192/125 74/193/126
f 70/139/124 69/138/127 72/192/125
f 68/137/128 71/140/129 66/135/130
f 68/137/128 73/144/131 71/140/129
f 70/152/124 79/194/132 77/150/133
f 70/152/124 74/195/126 79/194/132
f 78/154/134 68/151/128 76/149/135
f 78/154/134 73/159/131 68/151/128
f 82/196/136 81/197/101 90/170/100
f 82/196/136 90/170/100 89/169/137
f 89/169/137 88/168/93 82/198/136
f 88/168/93 84/199/95 82/198/136
f 93/200/138 101/185/122 94/201/123
f 93/200/138 99/183/139 101/185/122
f 99/183/139 93/202/138 100/184/116
f 93/202/138 95/203/118 100/184/116
f 57/122/57 50/123/50 58/124/58
f 57/122/57 51/125/51 50/123/50
f 57/122/57 54/126/54 51/125/51
f 58/124/58 50/123/50 52/127/52
f 59/128/59 64/129/64 63/130/63
f 59/128/59 60/131/60 64/129/64
f 59/128/59 63/130/63 61/132/61
f 60/131/60 62/133/62 64/129/64
#186 polygons

