# Blender v3.0.1 OBJ File: ''
# www.blender.org
mtllib porygon.mtl
o porygon
v 0.000000 23.006403 -34.368599
v 16.119600 4.836594 -30.975000
v 0.000000 4.836594 -30.975000
v 21.508699 23.006403 -34.368599
v -16.119600 4.836594 -30.975000
v 18.104700 31.676004 -35.765999
v -21.508699 23.006403 -34.368599
v 0.000000 31.676004 -35.765999
v -18.104700 31.676004 -35.765999
v 0.000000 4.836589 8.564170
v 16.119600 4.836589 8.564170
v 11.333200 48.885799 1.141493
v -11.333200 48.885799 1.141493
v 21.509100 23.006397 22.929802
v 18.104700 31.676003 9.734340
v -16.119600 4.836589 8.564170
v 0.000000 48.885799 1.141493
v 0.000000 43.704300 15.949101
v 13.390200 43.704300 15.949101
v -21.509100 23.006397 22.929802
v -13.390200 43.704300 15.949101
v -18.104700 31.676003 9.734340
v 0.000000 66.499191 -14.490098
v 8.727370 80.000000 -11.542599
v 20.785900 66.499191 -14.490098
v 0.000000 80.000000 -11.542599
v 20.164600 53.181793 -11.136000
v -8.727370 80.000000 -11.542599
v 0.000000 53.181793 -11.136000
v -20.785900 66.499191 -14.490098
v -20.164600 53.181793 -11.136000
v 18.015699 43.704296 15.948702
v -18.015699 43.704296 15.948702
v 0.000000 43.704296 15.948702
v 13.853900 43.229897 29.005102
v 0.000000 43.229897 29.005102
v -13.853900 43.229897 29.005102
v 6.296780 43.404091 50.909195
v 7.309850 42.484093 49.535004
v 10.170300 59.301697 36.262100
v 0.000000 59.301796 36.262108
v 0.000000 43.404091 50.909195
v 0.000000 42.484093 49.535004
v 13.404900 55.210697 32.862606
v -6.296780 43.404091 50.909195
v -10.170300 59.301697 36.262100
v -7.309850 42.484093 49.535004
v -13.404900 55.210697 32.862606
v 0.000000 23.006397 22.929802
v 15.311600 60.702896 21.643995
v 11.542700 67.515900 24.643299
v 17.743700 57.985096 10.079402
v 0.000000 67.515900 24.643299
v 8.698460 73.827499 15.133800
v 0.000000 73.827393 15.133800
v 0.000000 75.834702 6.616116
v 11.944400 75.834702 6.616116
v 17.483801 67.450897 3.021854
v -15.311600 60.702896 21.643995
v -11.542700 67.515900 24.643299
v -17.743700 57.985096 10.079402
v -8.698460 73.827499 15.133800
v -17.483801 67.450897 3.021854
v -11.944400 75.834702 6.616116
v 0.000000 5.669509 -31.109800
v 12.276500 5.687491 -40.046200
v 12.276500 5.669509 -31.109800
v 0.000000 5.687491 -40.046200
v 7.510710 27.272306 -35.075401
v 0.000000 27.272306 -35.075401
v 1.807050 53.225010 -78.457397
v 1.817950 55.978008 -75.273003
v 0.000000 53.225010 -78.457397
v 0.000000 55.978008 -75.273003
v -12.276500 5.669509 -31.109800
v -12.276500 5.687491 -40.046200
v -7.510710 27.272306 -35.075401
v -1.807050 53.225010 -78.457397
v -1.817950 55.978008 -75.273003
v 21.508900 0.000001 -13.625999
v 21.508900 8.654399 20.580402
v 21.508900 25.347900 -13.625998
v 21.508900 -0.000001 20.577900
v 21.508900 12.567301 -34.999599
v 21.508900 0.000002 -34.999599
v 39.638699 0.000001 -13.625999
v 39.638699 0.000002 -34.999599
v 39.638699 7.842371 -34.999599
v 39.638699 18.273502 -13.625998
v 39.638699 5.900100 20.581402
v 39.638699 -0.000001 20.577900
v -21.508900 -0.000000 -13.626000
v -21.508900 25.347900 -13.625999
v -21.508900 8.654398 20.580299
v -21.508900 12.567301 -34.999599
v -21.508900 -0.000003 20.577900
v -21.508900 0.000002 -34.999599
v -39.638699 -0.000000 -13.626000
v -39.638699 18.273502 -13.625999
v -39.638699 7.842371 -34.999599
v -39.638699 5.900098 20.581400
v -39.638699 0.000002 -34.999599
v -39.638699 -0.000001 20.577900
vt 0.499998 0.332038
vt 0.578072 0.421886
vt 0.499998 0.421886
vt 0.603626 0.332025
vt 0.421925 0.421886
vt 0.586344 0.289061
vt 0.396371 0.332025
vt 0.499998 0.289064
vt 0.413653 0.289061
vt 0.499998 0.609375
vt 0.578178 0.609375
vt 0.667817 0.406043
vt 0.552519 0.097811
vt 0.447478 0.097811
vt 0.667817 0.677103
vt 0.711073 0.614747
vt 0.711073 0.399343
vt 0.421819 0.609375
vt 0.499998 0.097811
vt 0.499998 0.027591
vt 0.560711 0.027591
vt 0.798835 0.573878
vt 0.332180 0.406043
vt 0.332180 0.677103
vt 0.439286 0.027591
vt 0.772430 0.644709
vt 0.288924 0.614747
vt 0.288924 0.399343
vt 0.201162 0.573878
vt 0.227567 0.644709
vt 0.499998 0.722656
vt 0.541793 0.656250
vt 0.599183 0.722656
vt 0.499998 0.656250
vt 0.597980 0.789063
vt 0.458204 0.656250
vt 0.499998 0.789063
vt 0.400814 0.722656
vt 0.402017 0.789063
vt 0.584622 0.921875
vt 0.415375 0.921875
vt 0.499998 0.921875
vt 0.565559 0.984375
vt 0.499998 0.984375
vt 0.434438 0.984375
vt 0.842341 0.648438
vt 0.851548 0.648648
vt 0.859950 0.750000
vt 0.812500 0.750000
vt 0.812500 0.648438
vt 0.812500 0.640625
vt 0.847161 0.640625
vt 0.888790 0.745853
vt 0.935400 0.707767
vt 0.812500 0.542969
vt 0.878338 0.542969
vt 0.157655 0.648438
vt 0.140047 0.750000
vt 0.148449 0.648648
vt 0.187497 0.750000
vt 0.187497 0.648438
vt 0.187497 0.640625
vt 0.152836 0.640625
vt 0.111207 0.745853
vt 0.064597 0.707767
vt 0.187497 0.542969
vt 0.121659 0.542969
vt 0.867188 0.882812
vt 0.947533 0.765625
vt 0.971900 0.882813
vt 0.867188 0.765625
vt 0.930464 0.984375
vt 0.867188 0.984375
vt 0.991779 0.956193
vt 0.132809 0.882812
vt 0.028097 0.882813
vt 0.052464 0.765625
vt 0.069532 0.984375
vt 0.132809 0.765625
vt 0.132809 0.984375
vt 0.008218 0.956193
vt 0.718982 0.790513
vt 0.681032 0.800781
vt 0.702537 0.734375
vt 0.755174 0.710550
vt 0.796091 0.758738
vt 0.764460 0.821792
vt 0.673999 0.734375
vt 0.625000 0.800781
vt 0.668156 0.851563
vt 0.844443 0.880926
vt 0.625000 0.734375
vt 0.625000 0.851563
vt 0.625000 0.890625
vt 0.684147 0.890625
vt 0.752723 0.873816
vt 0.808726 0.931914
vt 0.669188 0.980469
vt 0.733762 0.967231
vt 0.625000 0.980469
vt 0.706264 0.886447
vt 0.281015 0.790513
vt 0.297460 0.734375
vt 0.318965 0.800781
vt 0.244823 0.710550
vt 0.203906 0.758738
vt 0.235537 0.821792
vt 0.325998 0.734375
vt 0.374997 0.800781
vt 0.331841 0.851563
vt 0.155554 0.880926
vt 0.247274 0.873816
vt 0.374997 0.734375
vt 0.374997 0.851563
vt 0.374997 0.890625
vt 0.315850 0.890625
vt 0.191271 0.931914
vt 0.266235 0.967231
vt 0.293733 0.886447
vt 0.330809 0.980469
vt 0.374997 0.980469
vt 0.710712 0.863891
vt 0.717273 0.813212
vt 0.735498 0.857291
vt 0.697865 0.818590
vt 0.690877 0.845555
vt 0.741646 0.829846
vt 0.282477 0.812759
vt 0.289216 0.863308
vt 0.264818 0.856333
vt 0.301883 0.818225
vt 0.258470 0.829636
vt 0.308325 0.846106
vt 0.992188 0.355504
vt 0.935687 0.398586
vt 0.935687 0.355433
vt 0.992188 0.398586
vt 0.957150 0.253907
vt 0.992188 0.253905
vt 0.984375 0.687500
vt 0.864489 0.478142
vt 0.899098 0.378000
vt 0.962356 0.691305
vt 0.992188 0.687500
vt 0.992188 0.710938
vt 0.984375 0.710938
vt 0.007813 0.355504
vt 0.064314 0.355433
vt 0.064314 0.398586
vt 0.042850 0.253907
vt 0.007813 0.398586
vt 0.007813 0.253905
vt 0.135511 0.478142
vt 0.015625 0.687500
vt 0.100902 0.378000
vt 0.037644 0.691305
vt 0.015625 0.710938
vt 0.007813 0.710938
vt 0.007813 0.687500
vt 0.796868 0.128910
vt 0.640616 0.089269
vt 0.796871 0.011182
vt 0.640627 0.128906
vt 0.898432 0.069749
vt 0.898431 0.128912
vt 0.796866 0.210942
vt 0.898429 0.210944
vt 0.898428 0.247810
vt 0.796864 0.295837
vt 0.640608 0.237994
vt 0.640625 0.210938
vt 0.933913 0.210945
vt 0.955294 0.128914
vt 0.613929 0.210937
vt 0.601469 0.128905
vt 0.203129 0.128910
vt 0.203126 0.011182
vt 0.359381 0.089269
vt 0.101564 0.069749
vt 0.359370 0.128906
vt 0.101566 0.128912
vt 0.203131 0.210942
vt 0.203133 0.295837
vt 0.101569 0.247810
vt 0.359389 0.237994
vt 0.101568 0.210944
vt 0.359372 0.210938
vt 0.066084 0.210945
vt 0.044703 0.128914
vt 0.386068 0.210937
vt 0.398528 0.128905
vt 0.983004 0.031251
vt 0.992188 0.031249
vt 0.016996 0.031251
vt 0.007813 0.031249
vt 0.777115 0.382720
vt 0.614519 0.318119
vt 0.823190 0.384104
vt 0.927774 0.331036
vt 0.222882 0.382720
vt 0.385478 0.318119
vt 0.176807 0.384104
vt 0.072223 0.331036
vn 0.0000 -0.1714 -0.9852
vn 0.4852 -0.6972 -0.5278
vn 0.0000 -0.7693 -0.6389
vn 0.7668 -0.0510 -0.6399
vn -0.4852 -0.6972 -0.5278
vn 0.5043 0.4754 -0.7209
vn -0.7668 -0.0510 -0.6399
vn 0.0000 0.4683 -0.8836
vn -0.5043 0.4754 -0.7209
vn 0.0000 -0.9001 0.4358
vn 0.5082 -0.7925 0.3371
vn 0.4717 0.8809 -0.0378
vn -0.4717 0.8809 -0.0378
vn 0.6812 -0.0805 0.7277
vn 0.9308 0.3655 -0.0003
vn -0.5082 -0.7925 0.3371
vn 0.0000 0.9988 -0.0498
vn 0.0000 0.7031 0.7111
vn 0.4986 0.6691 0.5510
vn -0.6812 -0.0805 0.7277
vn -0.4986 0.6691 0.5510
vn -0.9308 0.3655 -0.0003
vn 0.0000 -0.0159 -0.9999
vn 0.3054 0.8273 -0.4716
vn 0.7492 0.2030 -0.6305
vn 0.0000 0.8445 -0.5356
vn 0.6553 -0.5276 -0.5406
vn -0.3054 0.8273 -0.4716
vn 0.0000 -0.6746 -0.7382
vn -0.7492 0.2030 -0.6305
vn -0.6553 -0.5276 -0.5406
vn 0.7211 -0.6928 0.0027
vn -0.7211 -0.6928 0.0027
vn 0.0000 -0.9827 -0.1854
vn 0.6800 -0.7142 0.1660
vn 0.0000 -0.9993 -0.0363
vn -0.6800 -0.7142 0.1660
vn 0.3453 -0.0810 0.9350
vn 0.6241 -0.6379 0.4512
vn 0.4824 0.6145 0.6242
vn 0.0000 0.7512 0.6600
vn 0.0000 -0.1179 0.9930
vn 0.0000 -0.9619 0.2733
vn 0.9322 0.1518 0.3287
vn -0.3453 -0.0810 0.9350
vn -0.4824 0.6145 0.6242
vn -0.6241 -0.6379 0.4512
vn -0.9322 0.1518 0.3287
vn 0.0000 -0.1710 0.9853
vn 0.9414 0.2344 0.2423
vn 0.5333 0.7004 0.4744
vn 0.9849 0.1034 0.1391
vn 0.0000 0.8250 0.5652
vn 0.2038 0.8946 0.3976
vn 0.0000 0.9176 0.3974
vn 0.0000 0.9740 0.2265
vn 0.5260 0.8251 0.2064
vn 0.9257 0.3523 0.1376
vn -0.9414 0.2344 0.2423
vn -0.5333 0.7004 0.4744
vn -0.9849 0.1034 0.1391
vn -0.2038 0.8946 0.3976
vn -0.9257 0.3523 0.1376
vn -0.5260 0.8251 0.2064
vn 0.0000 -0.6409 0.7676
vn 0.8954 -0.4452 -0.0009
vn 0.6285 -0.4745 0.6163
vn 0.0000 -1.0000 -0.0020
vn 0.7686 0.2726 0.5788
vn 0.0000 0.1806 0.9836
vn 0.6665 0.5766 -0.4726
vn 0.7101 0.5315 -0.4619
vn 0.0000 0.7565 -0.6540
vn -0.6285 -0.4745 0.6163
vn -0.8954 -0.4452 -0.0009
vn -0.7686 0.2726 0.5788
vn -0.6665 0.5766 -0.4726
vn -0.7101 0.5315 -0.4619
vn -1.0000 -0.0000 0.0000
vn 1.0000 0.0000 0.0000
vn 0.0000 -0.7071 -0.7071
vn 0.1382 0.4374 -0.8886
vn 0.1417 0.5436 -0.8273
vn 0.0000 -1.0000 -0.0000
vn 0.0000 -0.7073 0.7069
vn -0.0001 -0.7072 0.7070
vn 0.1118 0.5000 0.8588
vn 0.0854 0.5623 0.8225
vn -0.1382 0.4374 -0.8886
vn -0.1417 0.5436 -0.8273
vn 0.0001 -0.7072 0.7070
vn -0.1118 0.5000 0.8588
vn -0.0854 0.5623 0.8225
vn 0.0000 0.8138 0.5811
vn 0.0000 -0.6285 -0.7778
vn 0.3091 0.9498 -0.0478
vn 0.3630 0.9302 -0.0550
vn -0.3091 0.9498 -0.0478
vn -0.3630 0.9302 -0.0550
usemtl Material_#114
s 1
f 1/1/1 2/2/2 3/3/3
f 1/1/1 4/4/4 2/2/2
f 1/1/1 3/3/3 5/5/5
f 1/1/1 6/6/6 4/4/4
f 1/1/1 5/5/5 7/7/7
f 1/1/1 8/8/8 6/6/6
f 1/1/1 7/7/7 9/9/9
f 1/1/1 9/9/9 8/8/8
f 2/2/2 10/10/10 3/3/3
f 2/2/2 11/11/11 10/10/10
f 2/2/2 4/12/4 11/11/11
f 3/3/3 10/10/10 5/5/5
f 6/6/6 8/8/8 12/13/12
f 9/9/9 13/14/13 8/8/8
f 4/12/4 14/15/14 11/11/11
f 4/12/4 15/16/15 14/15/14
f 4/12/4 6/17/6 15/16/15
f 10/10/10 16/18/16 5/5/5
f 12/13/12 8/8/8 17/19/17
f 12/13/12 17/19/17 18/20/18
f 12/13/12 18/20/18 19/21/19
f 17/19/17 13/14/13 18/20/18
f 17/19/17 8/8/8 13/14/13
f 6/17/6 12/22/12 15/16/15
f 16/18/16 7/23/7 5/5/5
f 16/18/16 20/24/20 7/23/7
f 18/20/18 13/14/13 21/25/21
f 12/22/12 19/26/19 15/16/15
f 20/24/20 22/27/22 7/23/7
f 22/27/22 9/28/9 7/23/7
f 22/27/22 13/29/13 9/28/9
f 22/27/22 21/30/21 13/29/13
f 23/31/23 24/32/24 25/33/25
f 23/31/23 26/34/26 24/32/24
f 23/31/23 25/33/25 27/35/27
f 23/31/23 28/36/28 26/34/26
f 23/31/23 27/35/27 29/37/29
f 23/31/23 30/38/30 28/36/28
f 23/31/23 29/37/29 31/39/31
f 23/31/23 31/39/31 30/38/30
f 27/35/27 32/40/32 29/37/29
f 31/39/31 29/37/29 33/41/33
f 32/40/32 34/42/34 29/37/29
f 32/40/32 35/43/35 34/42/34
f 29/37/29 34/42/34 33/41/33
f 35/43/35 36/44/36 34/42/34
f 33/41/33 34/42/34 37/45/37
f 37/45/37 34/42/34 36/44/36
f 38/46/38 39/47/39 40/48/40
f 38/46/38 40/48/40 41/49/41
f 38/46/38 41/49/41 42/50/42
f 38/46/38 42/50/42 43/51/43
f 38/46/38 43/51/43 39/52/39
f 39/47/39 44/53/44 40/48/40
f 39/47/39 35/54/35 44/53/44
f 43/51/43 36/55/36 39/52/39
f 36/55/36 35/56/35 39/52/39
f 45/57/45 46/58/46 47/59/47
f 45/57/45 41/60/41 46/58/46
f 45/57/45 42/61/42 41/60/41
f 45/57/45 43/62/43 42/61/42
f 45/57/45 47/63/47 43/62/43
f 47/59/47 46/58/46 48/64/48
f 47/59/47 48/64/48 37/65/37
f 47/63/47 36/66/36 43/62/43
f 47/63/47 37/67/37 36/66/36
f 49/68/49 11/69/11 14/70/14
f 49/68/49 10/71/10 11/69/11
f 49/68/49 14/70/14 19/72/19
f 49/68/49 19/72/19 18/73/18
f 14/70/14 15/74/15 19/72/19
f 49/75/49 20/76/20 16/77/16
f 49/75/49 21/78/21 20/76/20
f 49/75/49 16/77/16 10/79/10
f 49/75/49 18/80/18 21/78/21
f 20/76/20 21/78/21 22/81/22
f 50/82/50 51/83/51 44/84/44
f 50/82/50 44/84/44 35/85/35
f 50/82/50 35/85/35 32/86/32
f 50/82/50 32/86/32 52/87/52
f 51/83/51 40/88/40 44/84/44
f 51/83/51 53/89/53 40/88/40
f 51/83/51 54/90/54 53/89/53
f 32/86/32 27/91/27 52/87/52
f 40/88/40 53/89/53 41/92/41
f 54/90/54 55/93/55 53/89/53
f 54/90/54 56/94/56 55/93/55
f 54/90/54 57/95/57 56/94/56
f 27/91/27 58/96/58 52/87/52
f 27/91/27 25/97/25 58/96/58
f 57/95/57 24/98/24 56/94/56
f 25/97/25 24/99/24 58/96/58
f 24/98/24 26/100/26 56/94/56
f 24/99/24 57/101/57 58/96/58
f 59/102/59 48/103/48 60/104/60
f 59/102/59 37/105/37 48/103/48
f 59/102/59 33/106/33 37/105/37
f 59/102/59 61/107/61 33/106/33
f 60/104/60 48/103/48 46/108/46
f 60/104/60 46/108/46 53/109/53
f 60/104/60 53/109/53 62/110/62
f 61/107/61 31/111/31 33/106/33
f 61/107/61 63/112/63 31/111/31
f 46/108/46 41/113/41 53/109/53
f 62/110/62 53/109/53 55/114/55
f 62/110/62 55/114/55 56/115/56
f 62/110/62 56/115/56 64/116/64
f 63/112/63 30/117/30 31/111/31
f 63/112/63 28/118/28 30/117/30
f 63/112/63 64/119/64 28/118/28
f 56/115/56 28/120/28 64/116/64
f 56/115/56 26/121/26 28/120/28
f 57/122/57 50/123/50 58/124/58
f 57/122/57 51/125/51 50/123/50
f 57/122/57 54/126/54 51/125/51
f 58/124/58 50/123/50 52/127/52
f 59/128/59 64/129/64 63/130/63
f 59/128/59 60/131/60 64/129/64
f 59/128/59 63/130/63 61/132/61
f 60/131/60 62/133/62 64/129/64
f 65/134/65 66/135/66 67/136/67
f 65/134/65 68/137/68 66/135/66
f 65/134/65 67/136/67 69/138/69
f 65/134/65 69/138/69 70/139/70
f 66/135/66 71/140/71 69/141/69
f 66/135/66 69/141/69 67/142/67
f 71/140/71 72/143/72 69/141/69
f 71/140/71 73/144/73 74/145/73
f 71/140/71 74/145/73 72/146/72
f 65/147/65 75/148/74 76/149/75
f 65/147/65 77/150/76 75/148/74
f 65/147/65 76/149/75 68/151/68
f 65/147/65 70/152/70 77/150/76
f 76/149/75 77/153/76 78/154/77
f 76/149/75 75/155/74 77/153/76
f 78/154/77 77/153/76 79/156/78
f 78/154/77 79/157/78 74/158/73
f 78/154/77 74/158/73 73/159/73
f 80/160/79 81/161/79 82/162/79
f 80/160/79 83/163/79 81/161/79
f 80/160/79 82/162/79 84/164/79
f 80/160/79 84/164/79 85/165/79
f 86/166/80 87/167/80 88/168/80
f 86/166/80 88/168/80 89/169/80
f 86/166/80 89/169/80 90/170/80
f 86/166/80 90/170/80 91/171/80
f 85/165/81 88/172/82 87/167/81
f 85/165/81 84/173/83 88/172/82
f 85/165/81 87/167/81 86/166/84
f 85/165/81 86/166/84 80/160/84
f 86/166/84 91/171/85 80/160/84
f 91/171/85 83/163/86 80/160/84
f 91/171/85 90/174/87 83/163/86
f 90/174/87 81/175/88 83/163/86
f 92/176/80 93/177/80 94/178/80
f 92/176/80 95/179/80 93/177/80
f 92/176/80 94/178/80 96/180/80
f 92/176/80 97/181/80 95/179/80
f 98/182/79 99/183/79 100/184/79
f 98/182/79 101/185/79 99/183/79
f 98/182/79 100/184/79 102/186/79
f 98/182/79 103/187/79 101/185/79
f 97/181/81 102/186/81 100/188/89
f 97/181/81 98/182/84 102/186/81
f 97/181/81 100/188/89 95/189/90
f 97/181/81 92/176/84 98/182/84
f 92/176/84 103/187/85 98/182/84
f 92/176/84 96/180/91 103/187/85
f 96/180/91 101/190/92 103/187/85
f 96/180/91 94/191/93 101/190/92
f 70/139/94 72/192/94 74/193/94
f 70/139/94 69/138/94 72/192/94
f 68/137/95 71/140/95 66/135/95
f 68/137/95 73/144/95 71/140/95
f 70/152/94 79/194/94 77/150/94
f 70/152/94 74/195/94 79/194/94
f 78/154/95 68/151/95 76/149/95
f 78/154/95 73/159/95 68/151/95
f 82/196/96 81/197/88 90/170/87
f 82/196/96 90/170/87 89/169/97
f 89/169/97 88/168/82 82/198/96
f 88/168/82 84/199/83 82/198/96
f 93/200/98 101/185/92 94/201/93
f 93/200/98 99/183/99 101/185/92
f 99/183/99 93/202/98 100/184/89
f 93/202/98 95/203/90 100/184/89
