# Blender v3.0.1 OBJ File: ''
# www.blender.org
mtllib smooth_cube.mtl
o Cube.001
v 1.000000 1.000000 -1.000000
v -1.000000 1.000000 -1.000000
v -1.000000 1.000000 1.000000
v 1.000000 1.000000 1.000000
v 1.000000 -1.000000 1.000000
v -1.000000 -1.000000 1.000000
v -1.000000 -1.000000 -1.000000
v 1.000000 -1.000000 -1.000000
vt 0.625000 0.500000
vt 0.875000 0.500000
vt 0.875000 0.750000
vt 0.625000 0.750000
vt 0.375000 0.750000
vt 0.625000 1.000000
vt 0.375000 1.000000
vt 0.375000 0.000000
vt 0.625000 0.000000
vt 0.625000 0.250000
vt 0.375000 0.250000
vt 0.125000 0.500000
vt 0.375000 0.500000
vt 0.125000 0.750000
vn 0.4644 0.7541 -0.4644
vn -0.4644 0.7541 -0.4644
vn -0.4644 0.7541 0.4644
vn 0.4644 0.7541 0.4644
vn 0.4644 -0.4644 0.7541
vn 0.4644 0.4644 0.7541
vn -0.4644 0.4644 0.7541
vn -0.4644 -0.4644 0.7541
vn -0.7541 -0.4644 0.4644
vn -0.7541 0.4644 0.4644
vn -0.7541 0.4644 -0.4644
vn -0.7541 -0.4644 -0.4644
vn -0.4644 -0.7541 -0.4644
vn 0.4644 -0.7541 -0.4644
vn 0.4644 -0.7541 0.4644
vn -0.4644 -0.7541 0.4644
vn 0.7541 -0.4644 -0.4644
vn 0.7541 0.4644 -0.4644
vn 0.7541 0.4644 0.4644
vn 0.7541 -0.4644 0.4644
vn -0.4644 -0.4644 -0.7541
vn -0.4644 0.4644 -0.7541
vn 0.4644 0.4644 -0.7541
vn 0.4644 -0.4644 -0.7541
usemtl Material.001
s 1
f 1/1/1 2/2/2 3/3/3 4/4/4
f 5/5/5 4/4/6 3/6/7 6/7/8
f 6/8/9 3/9/10 2/10/11 7/11/12
f 7/12/13 8/13/14 5/5/15 6/14/16
f 8/13/17 1/1/18 4/4/19 5/5/20
f 7/11/21 2/10/22 1/1/23 8/13/24
