# Blender v3.0.1 OBJ File: ''
# www.blender.org
mtllib squirtle.mtl
o Pii_ZENIGAME_skinset2.001
v 0.000000 21.779938 0.000002
v 2.620728 21.295137 -2.248454
v -2.620728 21.295137 -2.248454
v 7.862279 20.450422 -2.248454
v 9.084874 20.641546 0.000002
v 11.226029 11.837137 -1.663769
v 12.971629 12.752751 0.643612
v 10.970753 6.649093 -3.582247
v 11.943677 4.801896 -1.839689
v 6.159447 3.257211 -9.600085
v -7.862279 20.450422 -2.248454
v -9.084874 20.641546 0.000002
v -11.226029 11.837137 -1.663769
v -12.971629 12.752751 0.643612
v -11.943677 4.801896 -1.839689
v -10.970753 6.649093 -3.582247
v -6.322631 5.374703 -10.224974
v -6.159447 3.257211 -9.600085
v 6.509574 5.374703 -10.224974
v 12.480083 41.016888 11.196286
v 0.000000 30.981518 17.619566
v 13.441031 30.981518 11.741907
v 0.000000 41.016888 15.992098
v -12.480083 41.016888 11.196286
v -13.441031 30.981518 11.741907
v 6.485815 8.401632 -10.849861
v 11.226029 11.837137 -1.663769
v 10.970753 6.649093 -3.582247
v 4.542437 20.165302 -7.789191
v -6.485815 8.401632 -10.849861
v -4.542437 20.165302 -7.789191
v -11.226029 11.837137 -1.663769
v -7.862279 20.450422 -2.248454
v -10.970753 6.649093 -3.582247
v -6.322631 5.374703 -10.224974
v 6.509574 5.374703 -10.224974
v -2.620728 21.295137 -2.248454
v 2.620728 21.295137 -2.248454
v 7.862279 20.450422 -2.248454
v -7.668112 3.257209 8.847463
v -12.971629 12.752751 0.643612
v -11.943677 4.801896 -1.839689
v -8.259261 12.373446 11.163495
v 7.608332 3.257209 8.847463
v 8.259261 12.373446 11.163495
v 12.971629 12.752751 0.643612
v 0.000000 21.779938 0.000002
v 4.542437 20.641546 7.452848
v 9.084874 20.641546 0.000002
v -4.542437 20.641546 7.452848
v -9.084874 20.641546 0.000002
v 0.000000 1.608362 0.643611
v -6.159447 3.257211 -9.600085
v 6.159447 3.257211 -9.600085
v 11.943677 4.801896 -1.839689
v 0.000000 28.731920 17.474344
v 0.000000 30.981518 17.619566
v -13.441031 30.981518 11.741907
v 13.441031 30.981518 11.741907
v -12.691736 24.474129 10.268978
v 0.000000 24.104710 15.509389
v 12.691736 24.474129 10.268978
v 15.925281 15.255438 12.193539
v 4.542437 20.641546 7.452848
v 8.259261 12.373446 11.163495
v 9.084874 20.641546 0.000002
v 12.971629 12.752751 0.643612
v -15.925281 15.255438 12.193539
v -9.084874 20.641546 0.000002
v -12.971629 12.752751 0.643612
v -4.542437 20.641546 7.452848
v -8.259261 12.373446 11.163495
v 6.838508 0.000000 0.000000
v 0.000000 1.608362 0.643611
v 6.159447 3.257211 -9.600085
v 7.608332 3.257209 8.847463
v 11.943677 4.801896 -1.839689
v -6.838508 0.000000 0.000000
v -7.668112 3.257209 8.847463
v -6.159447 3.257211 -9.600085
v -11.943677 4.801896 -1.839689
v 0.000000 47.603062 11.233161
v 0.000000 41.016888 15.992098
v 12.480083 41.016888 11.196286
v -12.480083 41.016888 11.196286
v -10.189999 48.330688 -0.802799
v -15.108984 42.189110 -0.802799
v -11.089647 42.189110 -13.344563
v -17.472343 33.413403 -0.802799
v -12.734505 34.125156 -14.462042
v -11.881520 26.749388 -13.588057
v 0.000000 28.424372 -17.814482
v 0.000000 22.214272 -11.801020
v 11.881520 26.749388 -13.588057
v 10.189999 21.870985 -0.802801
v 16.251268 26.749388 -0.802801
v 12.691736 24.474129 10.268978
v 17.472343 33.413403 -0.802799
v 13.441031 30.981518 11.741907
v 11.089647 42.189110 -13.344563
v 12.734505 34.125156 -14.462042
v 0.000000 40.158295 -17.114229
v 15.108984 42.189110 -0.802799
v 10.189999 48.330688 -0.802799
v 0.000000 50.628471 -0.802799
v 0.000000 47.785542 -11.089263
v 0.000000 20.746948 -0.802801
v -10.189999 21.870985 -0.802801
v 0.000000 22.760654 11.206833
v -12.691736 24.474129 10.268978
v 0.000000 24.104710 15.509389
v -16.251268 26.749388 -0.802801
v -13.441031 30.981518 11.741907
v -4.642894 11.651431 -24.485344
v 0.000000 15.701751 -32.039505
v 0.000000 6.756681 -30.187746
v 0.000000 17.553606 -23.094435
v 0.000000 5.144706 -11.917446
v 4.642894 11.651431 -24.485344
vt 0.544342 0.936798
vt 0.558350 0.934204
vt 0.530304 0.934204
vt 0.919336 0.978437
vt 0.946335 0.973872
vt 0.928330 0.976771
vt 0.950528 0.974519
vt 0.957875 0.937644
vt 0.963871 0.938409
vt 0.957013 0.926457
vt 0.961637 0.919855
vt 0.940477 0.914819
vt 0.892318 0.973872
vt 0.910324 0.976771
vt 0.888125 0.974519
vt 0.880777 0.937644
vt 0.874782 0.938409
vt 0.877016 0.919855
vt 0.881660 0.926457
vt 0.897608 0.922088
vt 0.898176 0.914819
vt 0.941046 0.922088
vt 0.062808 0.389372
vt 0.448127 0.043424
vt 0.050281 0.020428
vt 0.398322 0.389372
vt 0.062808 0.389372
vt 0.050281 0.020428
vt 0.241604 0.755578
vt 0.303920 0.819271
vt 0.300560 0.723086
vt 0.216058 0.973674
vt 0.071069 0.755578
vt 0.096615 0.973674
vt 0.008753 0.819271
vt 0.052972 0.978962
vt 0.012113 0.723086
vt 0.073213 0.699459
vt 0.239460 0.699459
vt 0.121882 0.994626
vt 0.190792 0.994626
vt 0.259701 0.978962
vt 0.377903 0.725103
vt 0.316837 0.865722
vt 0.328670 0.747984
vt 0.371094 0.860107
vt 0.553791 0.725103
vt 0.561284 0.860107
vt 0.615541 0.865722
vt 0.466189 0.999395
vt 0.518486 0.982540
vt 0.570792 0.982540
vt 0.413892 0.982540
vt 0.361586 0.982540
vt 0.466189 0.700692
vt 0.395269 0.725103
vt 0.537110 0.725103
vt 0.603709 0.747984
vt 0.800891 0.482877
vt 0.800891 0.519919
vt 0.664199 0.519919
vt 0.937568 0.519919
vt 0.664908 0.420850
vt 0.800891 0.415225
vt 0.936859 0.420850
vt 0.736308 0.924939
vt 0.712733 0.959359
vt 0.716761 0.881227
vt 0.722144 0.959359
vt 0.730201 0.883648
vt 0.687664 0.838718
vt 0.701845 0.873138
vt 0.693788 0.797427
vt 0.711256 0.873138
vt 0.707228 0.795006
vt 0.159563 0.517289
vt 0.148266 0.527564
vt 0.161045 0.538087
vt 0.161045 0.538087
vt 0.173019 0.547974
vt 0.136986 0.517289
vt 0.135504 0.538087
vt 0.135504 0.538087
vt 0.123514 0.547974
vt 0.161507 0.648777
vt 0.161507 0.603029
vt 0.202915 0.603029
vt 0.120099 0.603029
vt 0.127699 0.653831
vt 0.111398 0.611075
vt 0.124724 0.611075
vt 0.103466 0.550382
vt 0.119217 0.555211
vt 0.122080 0.504175
vt 0.161507 0.515904
vt 0.161507 0.472680
vt 0.200927 0.504175
vt 0.195315 0.470382
vt 0.215473 0.504175
vt 0.203684 0.488544
vt 0.219540 0.550382
vt 0.206109 0.533599
vt 0.198290 0.611075
vt 0.203797 0.555211
vt 0.161507 0.603029
vt 0.211608 0.611075
vt 0.195315 0.653831
vt 0.161507 0.669695
vt 0.161507 0.648777
vt 0.161507 0.462571
vt 0.127699 0.470382
vt 0.161507 0.472680
vt 0.119330 0.488544
vt 0.161507 0.485787
vt 0.107541 0.504175
vt 0.116905 0.533599
vt 0.391714 0.529735
vt 0.482528 0.599359
vt 0.460264 0.445597
vt 0.374987 0.631194
vt 0.240624 0.417891
vt 0.235744 0.422327
vt 0.390493 0.527995
vt 0.373362 0.623852
vt 0.460704 0.448503
vt 0.483507 0.593775
vn 0.0000 0.9994 -0.0335
vn 0.0636 0.9855 -0.1573
vn -0.0796 0.9860 -0.1465
vn 0.4856 0.8200 -0.3031
vn 0.5907 0.7651 -0.2562
vn 0.7974 0.2480 -0.5501
vn 0.9618 0.1026 -0.2539
vn 0.8384 -0.0231 -0.5446
vn 0.8977 -0.3996 -0.1857
vn 0.8384 -0.0230 -0.5446
vn 0.9729 -0.0728 -0.2194
vn 0.4141 -0.6994 -0.5826
vn -0.4856 0.8200 -0.3031
vn -0.5907 0.7651 -0.2562
vn -0.8219 0.2129 -0.5283
vn -0.9755 0.0951 -0.1986
vn -0.9046 -0.2897 -0.3127
vn -0.9805 -0.1153 -0.1592
vn -0.8630 -0.0016 -0.5052
vn -0.4605 -0.2186 -0.8603
vn -0.2374 -0.7098 -0.6632
vn 0.3743 -0.2613 -0.8897
vn 0.6680 0.4173 0.6162
vn 0.0000 0.0647 0.9979
vn 0.6838 -0.0618 0.7271
vn -0.0000 0.3855 0.9227
vn -0.6680 0.4173 0.6162
vn -0.6838 -0.0618 0.7271
vn 0.4875 0.0297 -0.8726
vn 0.3707 0.6261 -0.6860
vn -0.4836 0.1076 -0.8686
vn -0.3673 0.7701 -0.5216
vn -0.5029 -0.6881 0.5231
vn -0.9805 -0.1154 -0.1592
vn -0.2227 -0.1942 0.9553
vn 0.4340 -0.6412 0.6328
vn 0.2296 -0.0509 0.9720
vn 0.2295 -0.0509 0.9720
vn 0.4340 -0.6413 0.6328
vn 0.0539 0.8451 0.5319
vn 0.5907 0.7652 -0.2562
vn -0.0449 0.7830 0.6204
vn -0.5907 0.7652 -0.2562
vn 0.1569 0.1687 0.9731
vn -0.1572 0.0150 0.9874
vn -0.0000 -0.9996 0.0273
vn 0.4140 -0.6994 -0.5826
vn -0.0000 -0.9996 0.0274
vn 0.0000 -0.2450 0.9695
vn 0.0000 0.0648 0.9979
vn -0.6157 -0.6245 0.4804
vn 0.0000 -0.7504 0.6610
vn 0.6157 -0.6245 0.4804
vn 0.0637 0.7318 0.6785
vn 0.4704 0.7866 0.4000
vn 0.6757 0.7352 -0.0543
vn -0.6757 0.7352 -0.0543
vn -0.4704 0.7866 0.4000
vn -0.0448 0.7830 0.6204
vn -0.1572 0.0150 0.9875
vn -0.0637 0.7318 0.6785
vn 0.2590 -0.9658 -0.0145
vn -0.2589 -0.9658 -0.0154
vn -0.5028 -0.6882 0.5231
vn -0.2373 -0.7098 -0.6632
vn 0.5256 -0.5717 0.6300
vn 0.9136 -0.3892 0.1174
vn 0.3357 -0.9347 0.1167
vn -0.9206 -0.3841 0.0708
vn -0.3903 -0.5000 0.7731
vn -0.3357 -0.9347 0.1167
vn 0.0000 0.8519 0.5238
vn 0.6680 0.4172 0.6162
vn -0.6680 0.4172 0.6162
vn -0.4960 0.8683 -0.0037
vn -0.8914 0.4528 -0.0215
vn -0.6438 0.5202 -0.5611
vn -0.9995 0.0238 -0.0213
vn -0.6091 0.0415 -0.7920
vn -0.6318 -0.5487 -0.5475
vn 0.0000 -0.2843 -0.9587
vn 0.0000 -0.9136 -0.4065
vn 0.6318 -0.5487 -0.5475
vn 0.3328 -0.9420 -0.0430
vn 0.8544 -0.5162 -0.0597
vn 0.6158 -0.6245 0.4804
vn 0.9995 0.0238 -0.0213
vn 0.6838 -0.0617 0.7271
vn 0.6438 0.5202 -0.5611
vn 0.6091 0.0415 -0.7920
vn -0.0000 0.3045 -0.9525
vn 0.8914 0.4528 -0.0215
vn 0.4960 0.8683 -0.0037
vn -0.0000 0.9999 -0.0120
vn -0.0000 0.8600 -0.5103
vn 0.0000 -0.9999 0.0166
vn -0.3329 -0.9420 -0.0430
vn 0.0000 -0.9754 0.2206
vn -0.6158 -0.6245 0.4804
vn -0.8544 -0.5162 -0.0597
vn -0.6838 -0.0617 0.7271
vn -0.9914 0.1034 -0.0796
vn -0.8772 0.2857 -0.3859
vn -0.8468 -0.4132 -0.3348
vn -0.7925 0.5765 0.1991
vn -0.9500 -0.1243 0.2866
vn 0.9500 -0.1243 0.2866
vn 0.9914 0.1034 -0.0797
vn 0.7925 0.5765 0.1991
vn 0.8468 -0.4132 -0.3348
vn 0.8772 0.2857 -0.3859
usemtl Material.004
s 1
f 1/1/1 2/2/2 3/3/3
f 1/4/1 4/5/4 2/6/2
f 5/7/5 4/5/4 1/4/1
f 5/7/5 6/8/6 4/5/4
f 7/9/7 6/8/6 5/7/5
f 7/9/7 8/10/8 6/8/6
f 9/11/9 8/10/10 7/9/11
f 9/11/9 10/12/12 8/10/10
f 11/13/13 1/4/1 3/14/3
f 11/13/13 12/15/14 1/4/1
f 13/16/15 12/15/14 11/13/13
f 13/16/15 14/17/16 12/15/14
f 15/18/17 14/17/18 13/16/15
f 16/19/19 15/18/17 13/16/15
f 16/19/19 17/20/20 15/18/17
f 17/20/20 18/21/21 15/18/17
f 17/20/20 19/22/22 18/21/21
f 19/22/22 10/12/12 18/21/21
f 19/22/22 8/10/10 10/12/12
f 20/23/23 21/24/24 22/25/25
f 20/23/23 23/26/26 21/24/24
f 21/24/24 24/27/27 25/28/28
f 21/24/24 23/26/26 24/27/27
f 26/29/29 27/30/6 28/31/8
f 26/29/29 29/32/30 27/30/6
f 30/33/31 29/32/30 26/29/29
f 30/33/31 31/34/32 29/32/30
f 32/35/15 31/34/32 30/33/31
f 32/35/15 33/36/13 31/34/32
f 30/33/31 34/37/19 32/35/15
f 30/33/31 35/38/20 34/37/19
f 26/29/29 35/38/20 30/33/31
f 26/29/29 36/39/22 35/38/20
f 28/31/8 36/39/22 26/29/29
f 37/40/3 31/34/32 33/36/13
f 37/40/3 38/41/2 31/34/32
f 38/41/2 29/32/30 31/34/32
f 38/41/2 39/42/4 29/32/30
f 39/42/4 27/30/6 29/32/30
f 40/43/33 41/44/34 42/45/17
f 40/43/33 43/46/35 41/44/34
f 44/47/36 43/46/35 40/43/33
f 44/47/36 45/48/37 43/46/35
f 46/49/11 45/48/38 44/47/39
f 47/50/1 48/51/40 49/52/41
f 47/50/1 50/53/42 48/51/40
f 51/54/43 50/53/42 47/50/1
f 45/48/44 50/53/42 43/46/45
f 45/48/44 48/51/40 50/53/42
f 44/47/36 40/43/33 52/55/46
f 53/56/21 54/57/47 52/55/48
f 55/58/9 46/49/11 44/47/39
f 56/59/49 57/60/50 58/61/28
f 56/59/49 59/62/25 57/60/50
f 60/63/51 56/59/49 58/61/28
f 60/63/51 61/64/52 56/59/49
f 56/59/49 62/65/53 59/62/25
f 56/59/49 61/64/52 62/65/53
f 63/66/54 64/67/40 65/68/44
f 63/66/55 66/69/41 64/67/40
f 67/70/7 66/69/5 63/66/56
f 68/71/57 69/72/14 70/73/16
f 68/71/58 71/74/59 69/72/43
f 72/75/60 71/74/42 68/71/61
f 73/76/62 74/77/48 75/78/47
f 73/76/62 76/79/36 74/77/48
f 77/80/9 76/79/36 73/76/62
f 78/81/63 74/77/48 79/82/64
f 78/81/63 80/83/65 74/77/48
f 81/84/17 80/83/65 78/81/63
f 65/68/66 67/70/67 63/66/68
f 70/73/69 72/75/70 68/71/71
f 75/78/47 77/80/9 73/76/62
f 79/82/64 81/84/17 78/81/63
f 82/85/72 83/86/26 84/87/73
f 82/85/72 85/88/74 83/86/26
f 86/89/75 85/88/74 82/85/72
f 86/89/75 87/90/76 85/88/74
f 88/91/77 87/90/76 86/89/75
f 88/91/77 89/92/78 87/90/76
f 90/93/79 89/92/78 88/91/77
f 90/93/79 91/94/80 89/92/78
f 92/95/81 91/94/80 90/93/79
f 92/95/81 93/96/82 91/94/80
f 94/97/83 93/96/82 92/95/81
f 94/97/83 95/98/84 93/96/82
f 96/99/85 95/98/84 94/97/83
f 96/99/85 97/100/86 95/98/84
f 98/101/87 97/100/86 96/99/85
f 98/101/87 99/102/88 97/100/86
f 84/87/73 99/102/88 98/101/87
f 100/103/89 101/104/90 102/105/91
f 100/103/89 98/101/87 101/104/90
f 103/106/92 98/101/87 100/103/89
f 103/106/92 84/87/73 98/101/87
f 104/107/93 84/87/73 103/106/92
f 104/107/93 82/85/72 84/87/73
f 105/108/94 82/85/72 104/107/93
f 105/108/94 86/89/75 82/85/72
f 106/109/95 86/89/75 105/108/94
f 106/109/95 88/91/77 86/89/75
f 102/105/91 88/91/77 106/109/95
f 94/97/83 98/101/87 96/99/85
f 94/97/83 101/104/90 98/101/87
f 92/95/81 101/104/90 94/97/83
f 92/95/81 102/105/91 101/104/90
f 90/93/79 102/105/91 92/95/81
f 90/93/79 88/91/77 102/105/91
f 107/110/96 93/96/82 95/98/84
f 107/110/96 108/111/97 93/96/82
f 109/112/98 108/111/97 107/110/96
f 109/112/98 110/113/99 108/111/97
f 111/114/52 110/113/99 109/112/98
f 112/115/100 110/113/99 89/92/78
f 112/115/100 108/111/97 110/113/99
f 91/94/80 108/111/97 112/115/100
f 91/94/80 93/96/82 108/111/97
f 89/92/78 85/88/74 87/90/76
f 89/92/78 113/116/101 85/88/74
f 110/113/99 113/116/101 89/92/78
f 106/109/95 100/103/89 102/105/91
f 106/109/95 104/107/93 100/103/89
f 105/108/94 104/107/93 106/109/95
f 109/112/98 97/100/86 111/114/52
f 109/112/98 95/98/84 97/100/86
f 107/110/96 95/98/84 109/112/98
f 103/106/92 100/103/89 104/107/93
f 112/115/100 89/92/78 91/94/80
f 114/117/102 115/118/103 116/119/104
f 114/117/102 117/120/105 115/118/103
f 118/121/106 117/120/105 114/117/102
f 118/122/107 119/123/108 117/124/109
f 116/125/110 119/123/108 118/122/107
f 116/125/110 115/126/111 119/123/108
f 119/123/108 115/126/111 117/124/109
f 116/119/104 118/121/106 114/117/102
